<?xml version="1.0" encoding="utf-8"?>
<!-- Generator: Adobe Illustrator 24.1.2, SVG Export Plug-In . SVG Version: 6.00 Build 0)  -->
<svg version="1.1" id="Layer_1" xmlns="http://www.w3.org/2000/svg" xmlns:xlink="http://www.w3.org/1999/xlink" x="0px" y="0px"
	 viewBox="0 0 680.7 535.5" style="enable-background:new 0 0 680.7 535.5;" xml:space="preserve">
<style type="text/css">
	.st0{fill:#6DCEF5;}
	.st1{fill:#FFF100;}
	.st2{fill:#008541;}
	.st3{fill:#EE4023;}
</style>
<g>
	<path class="st0" d="M267.7,535.5c147.9,0,267.8-119.8,267.8-267.7S415.6,0,267.7,0C119.9,0,0,119.9,0,267.8
		C0,415.6,119.9,535.5,267.7,535.5z"/>
	<g>
		<rect x="294.9" y="89.9" class="st1" width="114.6" height="351"/>
		<g>
			<path class="st2" d="M215.2,81.1c-45.2,0-88.9,6.8-127.6,19.3v70.8c29.2-13.5,53.9-19.3,83.8-19.3c41.6,0,70.7,15.1,70.7,37
				c0,24-34.3,39.1-88.2,39.1c-5.8,0-9.5,0-19-0.5v60.9c14.6-1.6,21.9-2.1,34.3-2.1c43.7,0,71.4,15.1,71.4,39
				c0,22.9-25.5,38-63.4,38c-31.3,0-60.5-9.4-99.1-31.8v84.9c48.1,18.7,102.8,29.1,155.3,29.1c23.2,0,43.6-2.2,61.6-6V89.9
				C271.6,84.2,244.8,81.1,215.2,81.1z"/>
			<path class="st3" d="M638.2,347.8c-19.4-42.5-33.1-67.2-58.8-78.2c38.3-16.8,57.7-45.1,57.7-82.9c0-56.2-41.5-102.3-138-102.3
				H295v5.5c61.3,14.9,98.8,47.9,98.8,91.6c0,32.8-21.9,58.3-65.6,76c48.1,17.2,72.9,45.3,72.9,82.8c0,37.9-30.5,83.2-106.1,99.2
				v2.7h125.4V292.7h34.1c34.1,0,54,35.2,80.3,96.5l22.6,53h123.3L638.2,347.8z M454.5,237.6h-34.1v-95.5h36.7
				c39.4,0,61.4,15.7,61.4,47.2C518.5,220.8,494.9,237.6,454.5,237.6z"/>
		</g>
	</g>
</g>
</svg>
