<?xml version="1.0" encoding="utf-8"?>
<!-- Generator: Adobe Illustrator 24.1.2, SVG Export Plug-In . SVG Version: 6.00 Build 0)  -->
<svg version="1.1" id="Layer_1" xmlns="http://www.w3.org/2000/svg" xmlns:xlink="http://www.w3.org/1999/xlink" x="0px" y="0px"
	 viewBox="0 0 820.9 186.3" style="enable-background:new 0 0 820.9 186.3;" xml:space="preserve">
<style type="text/css">
	.st0{fill:#4D4D4F;}
	.st1{fill:#1C75BC;}
	.st2{fill:#01A64F;}
	.st3{fill:#F58220;}
	.st4{fill:#E21E3D;}
</style>
<g>
	<path class="st0" d="M0,158.5c0,1.9,1.6,3.5,3.5,3.5h531.3c1.9,0,3.5-1.6,3.5-3.5s-1.6-3.5-3.5-3.5H3.4C1.5,155,0,156.6,0,158.5
		C0,158.5,0,156.6,0,158.5z"/>
</g>
<g>
	<g>
		<path class="st0" d="M61.6,62.5c-1.5-9.6-7.6-14.7-17.3-14.7c-15,0-20,15.2-20,27.7c0,12.2,4.8,26.9,19.5,26.9
			c10.9,0,17.1-6.9,18.6-17.3H85c-3,22.6-18.6,35-41.1,35c-25.7,0-43-18.1-43-43.7c0-26.5,15.8-46.2,43.5-46.2
			c20.1,0,38.6,10.6,40.1,32.3L61.6,62.5L61.6,62.5z"/>
		<path class="st0" d="M112.6,80.8c0.7,14.8,7.9,21.6,20.9,21.6c9.4,0,17-5.8,18.5-11h20.6c-6.6,20.1-20.6,28.7-39.9,28.7
			c-26.9,0-43.5-18.5-43.5-44.9c0-25.6,17.6-45,43.5-45c29,0,43,24.4,41.4,50.6H112.6z M150.7,66c-2.1-11.9-7.3-18.1-18.6-18.1
			c-14.8,0-19.1,11.5-19.5,18.1H150.7z"/>
		<path class="st0" d="M201.1,90.1c0.2,10.2,8.7,14.3,18,14.3c6.8,0,15.3-2.6,15.3-10.9c0-7.1-9.7-9.6-26.5-13.2
			c-13.5-3-27-7.8-27-22.8c0-21.8,18.8-27.4,37.1-27.4c18.6,0,35.8,6.3,37.6,27.2h-22.3c-0.7-9.1-7.6-11.5-16-11.5
			c-5.3,0-13,1-13,7.9c0,8.4,13.2,9.6,26.5,12.7c13.7,3.1,27,8.1,27,23.9c0,22.4-19.5,29.7-38.9,29.7c-19.8,0-39.1-7.4-40.1-30
			L201.1,90.1L201.1,90.1z"/>
		<path class="st0" d="M336.5,58.1c0-17-11.2-23.7-27.4-23.7c-23.7,0-25.4,15-25.4,18c0,8.4,3.6,12.5,9.4,14.8
			c5.9,2.3,12.7,3.8,21.8,6.3c13,3.3,27.2,6.6,27.2,22.8c0,17-16,23.6-30.7,23.6c-22.3,0-34.3-9.7-34.3-31h3.3
			c0,18.8,11.4,27.7,31,27.7c12.2,0,27.4-5.4,27.4-20c0-15-14.7-17.3-29.2-20.9c-8.1-2-14.2-3.6-19-5.8c-6.9-3-10.2-8.4-10.2-17.5
			c0-9.4,7.6-21.3,28.7-21.3c18.8,0,30.7,8.2,30.7,27L336.5,58.1L336.5,58.1z"/>
		<path class="st0" d="M391.4,31c24.7,0,38.1,21.3,38.1,44.4c0,23.3-13.4,44.4-38.3,44.4c-24.7,0-38.1-21.1-38.1-44.4
			C353.2,52.3,366.5,31,391.4,31z M391.4,116.5c22.6,0,34.8-19.6,34.8-41.1c0-21.1-12.2-41.1-34.8-41.1c-22.9,0-35,20-35,41.1
			C356.5,96.8,368.5,116.5,391.4,116.5z"/>
		<path class="st0" d="M434,36.3V33h14.5V14.2c0-13.5,9.6-14.2,16.7-14.2c3,0,5.3,0.5,7.1,0.7V4c-3.1-0.5-5.3-0.7-7.8-0.7
			c-10.6,0-12.7,3.8-12.7,12v17.6h18.3v3.3h-18.3v81.5h-3.3V36.3H434z"/>
		<path class="st0" d="M485.9,36.3v65c0,12.7,6.3,13.2,11.4,13.2c3.3,0,6.3-0.2,7.3-0.5v3.3c-2,0.2-3,0.5-8.1,0.5
			c-7.8,0-13.9-3.8-13.9-15.8V36.3h-15.7V33h15.7V6.3h3.3V33H505v3.3H485.9z"/>
		<path class="st0" d="M618.5,33h3.3l-27,84.8h-4.3l-26.4-81.5h-0.3l-26.5,81.5h-4.6L506.3,33h3.3l25.2,81.5h0.3L561.3,33h5.1
			l26.1,81.5h0.3L618.5,33z"/>
		<path class="st0" d="M629.4,59.2c0.8-16,11.4-28.2,32.3-28.2c15,0,27.5,5.8,28,24.2v53.9c0,6.4,6.1,5.8,10.7,5.3v3.3
			c-6.4,0.5-14,0.5-14-8.2v-11h-0.3c-3.3,10.9-16.2,21.3-33.6,21.3c-16.8,0-28.4-7.9-28.4-22.9c0-20.9,15-24.4,29.2-25.4
			c23.3-1.3,33.1-0.8,33.1-13.7c0-10.2-2.1-23.4-24.7-23.4c-17.6,0-27.9,9.1-29,24.9h-3.3V59.2z M686.5,68h-0.3
			c-4.5,6.4-19.1,5.8-32.8,6.8c-13.4,1-25.9,4-25.9,22.1c0,9.7,6.3,19.6,24.7,19.6c22.1,0,34.3-16.2,34.3-32.8V68z"/>
		<path class="st0" d="M712.2,117.8h-3.3V33h3.3v20.9h0.3c3.1-12.5,13-23.6,33.3-22.9v3.3c-23.3-1.2-33.6,17-33.6,35.5V117.8z"/>
		<path class="st0" d="M750,76c0.3,22.8,9.4,40.4,33.5,40.4c17.5,0,30.3-9.7,33.1-28h3.3c-2.3,19.5-16.8,31.3-36.1,31.3
			c-26.2,0.3-37.1-19.1-37.1-44.4c0-28.2,18-44.4,37.1-44.4c26.4,0,38.1,21.8,37.1,45L750,76L750,76z M817.6,72.8
			c0.2-20.8-11.5-38.4-33.5-38.4c-18.3,0-33,14.7-34.1,38.4H817.6z"/>
	</g>
</g>
<path class="st1" d="M601.7,186.3h-28.1c-7.8,0-14.1-6.3-14.1-14.1l0,0c0-7.8,6.3-14.1,14.1-14.1h28.1c7.8,0,14.1,6.3,14.1,14.1l0,0
	C615.8,179.9,609.4,186.3,601.7,186.3z"/>
<path class="st2" d="M669.2,186.3h-28.1c-7.8,0-14.1-6.3-14.1-14.1l0,0c0-7.8,6.3-14.1,14.1-14.1h28.1c7.8,0,14.1,6.3,14.1,14.1l0,0
	C683.3,179.9,677,186.3,669.2,186.3z"/>
<path class="st3" d="M736.8,186.3h-28.1c-7.8,0-14.1-6.3-14.1-14.1l0,0c0-7.8,6.3-14.1,14.1-14.1h28.1c7.8,0,14.1,6.3,14.1,14.1l0,0
	C750.9,179.9,744.5,186.3,736.8,186.3z"/>
<path class="st4" d="M804.3,186.3h-28.1c-7.8,0-14.1-6.3-14.1-14.1l0,0c0-7.8,6.3-14.1,14.1-14.1h28.1c7.8,0,14.1,6.3,14.1,14.1l0,0
	C818.4,179.9,812.1,186.3,804.3,186.3z"/>
</svg>
