<?xml version="1.0" encoding="utf-8"?>
<!-- Generator: Adobe Illustrator 22.1.0, SVG Export Plug-In . SVG Version: 6.00 Build 0)  -->
<svg version="1.1" id="Layer_1" xmlns="http://www.w3.org/2000/svg" xmlns:xlink="http://www.w3.org/1999/xlink" x="0px" y="0px"
	 viewBox="0 0 182.4 182.4" style="enable-background:new 0 0 182.4 182.4;" xml:space="preserve">
<style type="text/css">
	.st0{fill:#E52421;}
	.st1{fill:#FFFFFF;}
</style>
<circle class="st0" cx="91.2" cy="91.2" r="91.2"/>
<path class="st1" d="M73,26.7h8.9v2h-6.7v3.4h5.9v1.8h-5.9v5.7h-2.3L73,26.7L73,26.7z"/>
<path class="st1" d="M83.4,30.3h1.9v1.8l0,0c0.2-1,1.5-2.1,2.7-2.1c0.5,0,0.6,0,0.8,0.1v2c-0.3,0-0.6-0.1-0.9-0.1
	c-1.4,0-2.5,1.1-2.5,3.2v4.4h-2.1L83.4,30.3L83.4,30.3z"/>
<path class="st1" d="M89,34.9c0-2.9,1.7-4.9,4.7-4.9s4.7,2.1,4.7,4.9c0,2.9-1.7,4.9-4.7,4.9C90.8,39.9,89,37.8,89,34.9z M96.4,34.9
	c0-1.6-0.8-3.3-2.7-3.3c-1.8,0-2.7,1.7-2.7,3.3s0.8,3.3,2.7,3.3C95.6,38.2,96.4,36.6,96.4,34.9z"/>
<path class="st1" d="M100.2,30.3h2v1.3h0.1c0.6-0.9,1.4-1.6,2.9-1.6c1.1,0,2.2,0.5,2.6,1.6c0.7-1,1.6-1.6,2.9-1.6
	c2,0,3.1,0.9,3.1,3.2v6.4h-2.1v-5.5c0-1.5-0.1-2.5-1.7-2.5c-1.4,0-2,0.9-2,2.5v5.5h-2.1v-6c0-1.3-0.4-2-1.6-2c-1.1,0-2,0.9-2,2.4
	v5.6h-2.1C100.2,39.6,100.2,30.3,100.2,30.3z"/>
<path class="st1" d="M36.3,58.3c6.7,0,12.3,4.2,12.3,17.2C48.6,88.8,43,93,36.3,93c-6.6,0-12.2-4.2-12.2-17.5
	C24.2,62.5,29.8,58.3,36.3,58.3z M36.3,87.4c5.5,0,5.5-8.1,5.5-11.9c0-3.5,0-11.6-5.5-11.6c-5.4,0-5.4,8.1-5.4,11.6
	C30.9,79.2,30.9,87.4,36.3,87.4z"/>
<path class="st1" d="M52.5,84.9H60v7.3h-7.5C52.5,92.2,52.5,84.9,52.5,84.9z"/>
<path class="st1" d="M81.3,67.5c-0.4-2.2-2.1-4.1-4.5-4.1c-4.9,0-6.2,6.4-6.4,10.1l0.1,0.1c1.9-2.6,4.3-3.7,7.5-3.7
	c2.9,0,5.8,1.3,7.7,3.4c1.8,2,2.6,4.8,2.6,7.4c0,6.8-4.7,12.2-11.7,12.2c-10.1,0-12.8-8.8-12.8-17.2c0-8.1,3.6-17.4,13.1-17.4
	c5.8,0,10,3.4,10.8,9.2H81.3z M71.1,81.2c0,3.1,2,6.2,5.4,6.2c3.2,0,5.1-3.1,5.1-6.1c0-3.1-1.6-6.3-5.1-6.3
	C72.8,75,71.1,77.9,71.1,81.2z"/>
<path class="st1" d="M100.1,72.4c2.9,0.2,7.1-0.3,7.1-4.1c0-2.8-2.2-4.4-4.7-4.4c-3.4,0-5.2,2.5-5.1,5.9H91
	c0.2-6.8,4.7-11.5,11.5-11.5c5.3,0,11.2,3.3,11.2,9.2c0,3.1-1.6,5.9-4.7,6.8v0.1c3.7,0.8,5.9,3.9,5.9,7.6c0,7-5.9,10.9-12.4,10.9
	c-7.5,0-12.5-4.5-12.4-12.1h6.4c0.1,3.6,2,6.6,5.9,6.6c3,0,5.4-2.1,5.4-5.2c0-5-4.4-4.9-7.7-4.9C100.1,77.3,100.1,72.4,100.1,72.4z"
	/>
<path class="st1" d="M127.4,58.3c5.9,0,7.8,4.4,7.8,9.6s-2.5,8.9-8,8.9c-5.9,0-7.9-3.9-7.9-9.1C119.3,62.5,121.8,58.3,127.4,58.3z
	 M127.2,73.3c3,0,3.1-3.4,3.1-5.4c0-1.9-0.1-6-3-6c-3,0-3.2,3.8-3.2,5.9C124.2,69.9,124.2,73.3,127.2,73.3z M147.5,57.9h4
	l-19.6,35.4h-4.1L147.5,57.9z M152,74.4c5.9,0,7.8,4.1,7.8,9.4c0,5.2-2.5,9.2-8,9.2c-5.9,0-7.9-4.1-7.9-9.4
	C143.9,78.4,146.4,74.4,152,74.4z M151.8,89.4c3,0,3.1-3.7,3.1-5.7c0-1.9-0.1-5.7-3-5.7c-3,0-3.2,3.5-3.2,5.7
	C148.7,85.7,148.7,89.4,151.8,89.4z"/>
<path class="st1" d="M27.3,108.6H33c3.7,0,4.4,2.4,4.4,4s-0.7,4-4.4,4h-3.4v5h-2.3V108.6z M29.6,114.7h3.3c1,0,2.3-0.5,2.3-2.1
	c0-1.7-1-2.1-2.2-2.1h-3.4C29.6,110.5,29.6,114.7,29.6,114.7z"/>
<path class="st1" d="M40.7,117.4c0,1.5,0.8,2.8,2.5,2.8c1.2,0,1.9-0.5,2.3-1.6h2c-0.5,2-2.2,3.2-4.2,3.2c-2.9,0-4.6-2-4.6-4.9
	c0-2.7,1.7-4.9,4.5-4.9c3,0,4.8,2.7,4.4,5.5L40.7,117.4L40.7,117.4z M45.6,116c-0.1-1.3-1-2.5-2.4-2.5s-2.4,1.1-2.5,2.5H45.6z"/>
<path class="st1" d="M49.2,112.2h1.9v1.8l0,0c0.2-1,1.5-2.1,2.7-2.1c0.5,0,0.6,0,0.8,0.1v2c-0.3,0-0.6-0.1-0.9-0.1
	c-1.4,0-2.5,1.1-2.5,3.2v4.5h-2.1L49.2,112.2L49.2,112.2z"/>
<path class="st1" d="M69.6,112.7c-0.4-1.5-1.3-2.6-3.2-2.6c-2.8,0-3.9,2.4-3.9,4.9c0,2.5,1.2,4.9,3.9,4.9c2,0,3.1-1.5,3.3-3.4h2.2
	c-0.2,3.1-2.4,5.2-5.5,5.2c-3.9,0-6.2-3.1-6.2-6.8s2.3-6.8,6.2-6.8c2.9,0,5.2,1.6,5.5,4.4h-2.3V112.7z"/>
<path class="st1" d="M73.7,112.2h1.9v1.8l0,0c0.2-1,1.5-2.1,2.7-2.1c0.5,0,0.6,0,0.8,0.1v2c-0.3,0-0.6-0.1-0.9-0.1
	c-1.4,0-2.5,1.1-2.5,3.2v4.5h-2.1L73.7,112.2L73.7,112.2z"/>
<path class="st1" d="M81.4,117.4c0,1.5,0.8,2.8,2.5,2.8c1.2,0,1.9-0.5,2.3-1.6h2c-0.5,2-2.2,3.2-4.2,3.2c-2.9,0-4.6-2-4.6-4.9
	c0-2.7,1.7-4.9,4.5-4.9c3,0,4.8,2.7,4.4,5.5L81.4,117.4L81.4,117.4z M86.2,116c-0.1-1.3-1-2.5-2.4-2.5s-2.4,1.1-2.5,2.5H86.2z"/>
<path class="st1" d="M98.6,121.5h-2v-1.3l0,0c-0.5,1.1-1.7,1.5-2.9,1.5c-3,0-4.4-2.2-4.4-5c0-3.4,2-4.9,4.1-4.9
	c1.2,0,2.5,0.4,3.1,1.5l0,0v-4.7h2.1C98.6,108.6,98.6,121.5,98.6,121.5z M94,120.1c1.8,0,2.6-1.7,2.6-3.3c0-2.1-1-3.3-2.6-3.3
	c-1.9,0-2.6,1.7-2.6,3.4C91.4,118.6,92.2,120.1,94,120.1z"/>
<path class="st1" d="M100.9,108.6h2.1v2h-2.1V108.6z M100.9,112.2h2.1v9.4h-2.1V112.2z"/>
<path class="st1" d="M104.3,112.2h1.6v-2.8h2.1v2.8h1.9v1.5H108v5c0,0.9,0.1,1.3,1,1.3c0.3,0,0.6,0,0.9-0.1v1.6
	c-0.5,0-0.9,0.1-1.3,0.1c-2.2,0-2.6-0.8-2.6-2.4v-5.5h-1.6L104.3,112.2L104.3,112.2z"/>
<path class="st1" d="M125.3,112.7c-0.4-1.5-1.3-2.6-3.2-2.6c-2.8,0-3.9,2.4-3.9,4.9c0,2.5,1.2,4.9,3.9,4.9c2,0,3.1-1.5,3.3-3.4h2.2
	c-0.2,3.1-2.4,5.2-5.5,5.2c-3.9,0-6.2-3.1-6.2-6.8s2.3-6.8,6.2-6.8c2.9,0,5.2,1.6,5.5,4.4h-2.3V112.7z"/>
<path class="st1" d="M137.2,119.4c0,0.5,0.1,0.7,0.5,0.7c0.1,0,0.3,0,0.5,0v1.4c-0.3,0.1-1,0.2-1.3,0.2c-0.8,0-1.4-0.3-1.6-1.1
	c-0.8,0.8-2.1,1.1-3.2,1.1c-1.7,0-3.2-0.9-3.2-2.7c0-2.3,1.9-2.7,3.6-2.9c1.5-0.3,2.8-0.1,2.8-1.3c0-1.1-1.1-1.3-1.9-1.3
	c-1.2,0-2,0.5-2.1,1.5h-2.1c0.1-2.4,2.2-3.1,4.3-3.1c1.8,0,3.7,0.7,3.7,2.7V119.4z M135.2,116.8c-0.6,0.4-1.6,0.4-2.5,0.6
	c-0.9,0.1-1.7,0.5-1.7,1.6c0,0.9,1.2,1.2,1.9,1.2c0.9,0,2.3-0.5,2.3-1.8V116.8z"/>
<path class="st1" d="M139.5,112.2h1.9v1.8l0,0c0.2-1,1.5-2.1,2.7-2.1c0.5,0,0.6,0,0.8,0.1v2c-0.3,0-0.6-0.1-0.9-0.1
	c-1.4,0-2.5,1.1-2.5,3.2v4.5h-2.1v-9.4H139.5z"/>
<path class="st1" d="M154.3,121.5h-2v-1.3l0,0c-0.5,1.1-1.7,1.5-2.9,1.5c-3,0-4.4-2.2-4.4-5c0-3.4,2-4.9,4.1-4.9
	c1.2,0,2.5,0.4,3.1,1.5l0,0v-4.7h2.1L154.3,121.5L154.3,121.5z M149.7,120.1c1.8,0,2.6-1.7,2.6-3.3c0-2.1-1-3.3-2.6-3.3
	c-1.9,0-2.6,1.7-2.6,3.4C147.1,118.6,147.9,120.1,149.7,120.1z"/>
<path class="st1" d="M41.5,130.3H52v2h-4.1v11h-2.3v-11h-4.1C41.5,132.3,41.5,130.3,41.5,130.3z"/>
<path class="st1" d="M51.6,133.9h1.9v1.8l0,0c0.2-1,1.5-2.1,2.7-2.1c0.5,0,0.6,0,0.8,0.1v2c-0.3,0-0.6-0.1-0.9-0.1
	c-1.4,0-2.5,1.1-2.5,3.2v4.5h-2.1L51.6,133.9L51.6,133.9z"/>
<path class="st1" d="M65.8,141.2c0,0.5,0.1,0.7,0.5,0.7c0.1,0,0.3,0,0.5,0v1.4c-0.3,0.1-1,0.2-1.3,0.2c-0.8,0-1.4-0.3-1.6-1.1
	c-0.8,0.8-2.1,1.1-3.2,1.1c-1.7,0-3.2-0.9-3.2-2.7c0-2.3,1.9-2.7,3.6-2.9c1.5-0.3,2.8-0.1,2.8-1.3c0-1.1-1.1-1.3-1.9-1.3
	c-1.2,0-2,0.5-2.1,1.5h-2.1c0.1-2.4,2.2-3.1,4.3-3.1c1.8,0,3.7,0.7,3.7,2.7V141.2z M63.7,138.6c-0.6,0.4-1.6,0.4-2.5,0.6
	c-0.9,0.1-1.7,0.5-1.7,1.6c0,0.9,1.2,1.2,1.9,1.2c0.9,0,2.3-0.5,2.3-1.8C63.7,140.2,63.7,138.6,63.7,138.6z"/>
<path class="st1" d="M68,133.9h2v1.4l0,0c0.6-1,1.7-1.7,2.9-1.7c2,0,3.3,1.1,3.3,3.2v6.4h-2.1v-5.9c0-1.5-0.6-2.1-1.8-2.1
	c-1.4,0-2.3,1.1-2.3,2.5v5.5h-2.1L68,133.9L68,133.9z"/>
<path class="st1" d="M80,140.3c0.1,1.2,1,1.6,2.1,1.6c0.8,0,2.1-0.2,2.1-1.2c-0.1-1.1-1.6-1.2-3.1-1.6c-1.5-0.3-3-0.9-3-2.8
	c0-2,2.2-2.7,3.9-2.7c1.9,0,3.7,0.8,3.9,2.9h-2.1c-0.2-1-1-1.2-1.9-1.2c-0.6,0-1.7,0.1-1.7,1c0,1,1.5,1.2,3,1.5c1.5,0.3,3,0.9,3,2.7
	c0,2.2-2.2,3-4.2,3c-2.4,0-4.1-1.1-4.1-3.3H80V140.3z"/>
<path class="st1" d="M95.6,141.2c0,0.5,0.1,0.7,0.5,0.7c0.1,0,0.3,0,0.5,0v1.4c-0.3,0.1-1,0.2-1.3,0.2c-0.8,0-1.4-0.3-1.6-1.1
	c-0.8,0.8-2.1,1.1-3.2,1.1c-1.7,0-3.2-0.9-3.2-2.7c0-2.3,1.9-2.7,3.6-2.9c1.5-0.3,2.8-0.1,2.8-1.3c0-1.1-1.1-1.3-1.9-1.3
	c-1.2,0-2,0.5-2.1,1.5h-2.1c0.1-2.4,2.2-3.1,4.3-3.1c1.8,0,3.7,0.7,3.7,2.7C95.6,136.4,95.6,141.2,95.6,141.2z M93.6,138.6
	c-0.6,0.4-1.6,0.4-2.5,0.6c-0.9,0.1-1.7,0.5-1.7,1.6c0,0.9,1.2,1.2,1.9,1.2c0.9,0,2.3-0.5,2.3-1.8C93.6,140.2,93.6,138.6,93.6,138.6
	z"/>
<path class="st1" d="M104.2,137c-0.2-1.1-1-1.8-2.1-1.8s-2.6,0.6-2.6,3.4c0,1.6,0.7,3.2,2.5,3.2c1.2,0,2-0.8,2.2-2.1h2.1
	c-0.4,2.4-1.9,3.8-4.3,3.8c-2.9,0-4.5-2.1-4.5-4.8c0-2.8,1.5-5,4.6-5c2.2,0,4,1.1,4.2,3.4L104.2,137L104.2,137z"/>
<path class="st1" d="M107,133.9h1.6v-2.8h2.1v2.8h1.9v1.5h-1.9v5c0,0.9,0.1,1.3,1,1.3c0.3,0,0.6,0,0.9-0.1v1.6
	c-0.5,0-0.9,0.1-1.3,0.1c-2.2,0-2.6-0.8-2.6-2.4v-5.5h-1.6L107,133.9L107,133.9z"/>
<path class="st1" d="M114,130.3h2.1v2H114V130.3z M114,133.9h2.1v9.4H114V133.9z"/>
<path class="st1" d="M117.9,138.6c0-2.9,1.7-4.9,4.7-4.9s4.7,2.1,4.7,4.9c0,2.9-1.7,4.9-4.7,4.9S117.9,141.5,117.9,138.6z
	 M125.3,138.6c0-1.6-0.8-3.3-2.7-3.3c-1.8,0-2.7,1.7-2.7,3.3s0.8,3.3,2.7,3.3S125.3,140.2,125.3,138.6z"/>
<path class="st1" d="M129.1,133.9h2v1.4l0,0c0.6-1,1.7-1.7,2.9-1.7c2,0,3.3,1.1,3.3,3.2v6.4h-2.1v-5.9c0-1.5-0.6-2.1-1.8-2.1
	c-1.4,0-2.3,1.1-2.3,2.5v5.5H129v-9.3H129.1z"/>
<path class="st1" d="M138.7,132.9l0.4-1.2l2,0.8v-2.2h1.2v2.2l2-0.8l0.4,1.2l-2.1,0.7l1.3,1.7l-1,0.7l-1.3-1.8l-1.2,1.8l-1-0.7
	l1.3-1.7L138.7,132.9z"/>
</svg>
