<?xml version="1.0" encoding="utf-8"?>
<!-- Generator: Adobe Illustrator 22.1.0, SVG Export Plug-In . SVG Version: 6.00 Build 0)  -->
<svg version="1.1" id="Layer_1" xmlns="http://www.w3.org/2000/svg" xmlns:xlink="http://www.w3.org/1999/xlink" x="0px" y="0px"
	 viewBox="0 0 182.4 182.4" style="enable-background:new 0 0 182.4 182.4;" xml:space="preserve">
<style type="text/css">
	.st0{fill:#E52421;}
	.st1{fill:#FFFFFF;}
</style>
<circle class="st0" cx="91.2" cy="91.2" r="91.2"/>
<path class="st1" d="M70.2,26.7h2.3v7.5c0,1.7,0.1,3.7,3,3.7s3-2,3-3.7v-7.5h2.3V35c0,3.3-2.1,5-5.3,5c-3.2,0-5.3-1.6-5.3-5
	C70.2,35,70.2,26.7,70.2,26.7z"/>
<path class="st1" d="M83.1,30.3h2v1.3l0,0c0.6-1.1,1.7-1.5,2.9-1.5c3,0,4.4,2.2,4.4,5c0,2.5-1.3,4.9-4,4.9c-1.2,0-2.5-0.4-3.1-1.5
	l0,0v4.7h-2.1V30.3H83.1z M87.8,31.6c-1.7,0-2.6,1.3-2.6,3.3c0,1.9,1,3.3,2.6,3.3c1.9,0,2.6-1.7,2.6-3.3
	C90.3,33.3,89.5,31.6,87.8,31.6z"/>
<path class="st1" d="M98.2,26.7h10.5v2h-4.1v11h-2.3v-11h-4.1V26.7z"/>
<path class="st1" d="M107.5,34.9c0-2.9,1.7-4.9,4.7-4.9s4.7,2.1,4.7,4.9c0,2.9-1.7,4.9-4.7,4.9C109.2,39.9,107.5,37.8,107.5,34.9z
	 M114.9,34.9c0-1.6-0.8-3.3-2.7-3.3c-1.8,0-2.7,1.7-2.7,3.3s0.8,3.3,2.7,3.3C114.1,38.2,114.9,36.6,114.9,34.9z"/>
<path class="st1" d="M38,84.6H23.9v-6.2L38.4,59h6v20h4.4v5.6h-4.4v7.7H38C38,92.3,38,84.6,38,84.6z M38,67.4L38,67.4L29.3,79h8.8
	L38,67.4L38,67.4z"/>
<path class="st1" d="M52.5,84.9H60v7.3h-7.5C52.5,92.2,52.5,84.9,52.5,84.9z"/>
<path class="st1" d="M86.6,64.5H72.9l-1.3,7.6l0.1,0.1c1.8-1.9,3.9-2.6,6.5-2.6c6.6,0,10.3,5.1,10.3,11.3c0,6.9-5.7,12.1-12.4,12
	c-6.5,0-12.3-3.6-12.4-10.6h6.8c0.3,3,2.5,5,5.5,5c3.5,0,5.8-3.1,5.8-6.4c0-3.5-2.1-6.2-5.8-6.2c-2.4,0-3.8,0.9-5.1,2.7h-6.1
	L68.1,59h18.6L86.6,64.5L86.6,64.5z"/>
<path class="st1" d="M102.5,58.3c6.7,0,12.3,4.2,12.3,17.2c0,13.3-5.6,17.5-12.3,17.5c-6.6,0-12.2-4.2-12.2-17.5
	C90.3,62.5,95.9,58.3,102.5,58.3z M102.5,87.4c5.5,0,5.5-8.1,5.5-11.9c0-3.5,0-11.6-5.5-11.6c-5.4,0-5.4,8.1-5.4,11.6
	C97.1,79.2,97.1,87.4,102.5,87.4z"/>
<path class="st1" d="M127.4,58.3c5.9,0,7.8,4.4,7.8,9.6s-2.5,8.9-8,8.9c-5.9,0-7.9-3.9-7.9-9.1C119.3,62.5,121.8,58.3,127.4,58.3z
	 M127.2,73.3c3,0,3.1-3.4,3.1-5.4c0-1.9-0.1-6-3-6c-3,0-3.2,3.8-3.2,5.9C124.2,69.9,124.2,73.3,127.2,73.3z M147.5,57.9h4
	l-19.6,35.4h-4.1L147.5,57.9z M152,74.4c5.9,0,7.8,4.1,7.8,9.4c0,5.2-2.5,9.2-8,9.2c-5.9,0-7.9-4.1-7.9-9.4
	C143.9,78.4,146.4,74.4,152,74.4z M151.8,89.4c3,0,3.1-3.7,3.1-5.7c0-1.9-0.1-5.7-3-5.7c-3,0-3.2,3.5-3.2,5.7
	C148.7,85.7,148.7,89.4,151.8,89.4z"/>
<path class="st1" d="M13.6,108.6h5.7c3.7,0,4.4,2.4,4.4,4s-0.7,4-4.4,4h-3.5v5h-2.3L13.6,108.6L13.6,108.6z M15.8,114.7h3.3
	c1,0,2.3-0.5,2.3-2.1c0-1.7-1-2.1-2.2-2.1h-3.4V114.7z"/>
<path class="st1" d="M27,117.4c0,1.5,0.8,2.8,2.5,2.8c1.2,0,1.9-0.5,2.3-1.6h2c-0.5,2-2.2,3.2-4.2,3.2c-2.9,0-4.6-2-4.6-4.9
	c0-2.7,1.7-4.9,4.5-4.9c3,0,4.8,2.7,4.4,5.5H27V117.4z M31.8,116c-0.1-1.3-1-2.5-2.4-2.5s-2.4,1.1-2.5,2.5H31.8z"/>
<path class="st1" d="M35.4,112.2h1.9v1.8l0,0c0.2-1,1.5-2.1,2.7-2.1c0.5,0,0.6,0,0.8,0.1v2c-0.3,0-0.6-0.1-0.9-0.1
	c-1.4,0-2.5,1.1-2.5,3.2v4.5h-2.1L35.4,112.2L35.4,112.2z"/>
<path class="st1" d="M47.1,108.6h3.2l3.6,10.1l0,0l3.5-10.1h3.2v12.9h-2.2v-10l0,0l-3.6,10h-1.9l-3.6-10l0,0v10h-2.2V108.6z"/>
<path class="st1" d="M62.5,116.8c0-2.9,1.7-4.9,4.7-4.9s4.7,2.1,4.7,4.9c0,2.9-1.7,4.9-4.7,4.9C64.2,121.8,62.5,119.7,62.5,116.8z
	 M69.9,116.8c0-1.6-0.8-3.3-2.7-3.3c-1.8,0-2.7,1.7-2.7,3.3c0,1.6,0.8,3.3,2.7,3.3C69.1,120.1,69.9,118.5,69.9,116.8z"/>
<path class="st1" d="M73.8,108.6h2v4.8l0,0c0.6-0.9,1.7-1.5,2.8-1.5c3,0,4.4,2.2,4.4,5c0,2.5-1.3,4.9-4,4.9c-1.3,0-2.6-0.3-3.2-1.5
	l0,0v1.3h-2C73.8,121.6,73.8,108.6,73.8,108.6z M78.4,113.5c-1.7,0-2.6,1.3-2.6,3.3c0,1.9,1,3.3,2.6,3.3c1.9,0,2.6-1.7,2.6-3.3
	C81,115.2,80.1,113.5,78.4,113.5z"/>
<path class="st1" d="M84.8,108.6h2.1v2h-2.1V108.6z M84.8,112.2h2.1v9.4h-2.1V112.2z"/>
<path class="st1" d="M89.2,108.6h2.1v12.9h-2.1V108.6z"/>
<path class="st1" d="M95.1,117.4c0,1.5,0.8,2.8,2.5,2.8c1.2,0,1.9-0.5,2.3-1.6h2c-0.5,2-2.2,3.2-4.2,3.2c-2.9,0-4.6-2-4.6-4.9
	c0-2.7,1.7-4.9,4.5-4.9c3,0,4.8,2.7,4.4,5.5h-6.9V117.4z M99.9,116c-0.1-1.3-1-2.5-2.4-2.5s-2.4,1.1-2.5,2.5H99.9z"/>
<path class="st1" d="M107.7,108.6h10.5v2h-4.1v11h-2.3v-11h-4.1V108.6z"/>
<path class="st1" d="M116.9,116.8c0-2.9,1.7-4.9,4.7-4.9c3,0,4.7,2.1,4.7,4.9c0,2.9-1.7,4.9-4.7,4.9
	C118.6,121.8,116.9,119.7,116.9,116.8z M124.3,116.8c0-1.6-0.8-3.3-2.7-3.3c-1.8,0-2.7,1.7-2.7,3.3c0,1.6,0.8,3.3,2.7,3.3
	S124.3,118.5,124.3,116.8z"/>
<path class="st1" d="M128.1,112.2h2v1.3l0,0c0.6-1.1,1.7-1.5,2.9-1.5c3,0,4.4,2.2,4.4,5c0,2.5-1.3,4.9-4,4.9c-1.2,0-2.5-0.4-3.1-1.5
	l0,0v4.7h-2.1L128.1,112.2L128.1,112.2z M132.8,113.5c-1.7,0-2.6,1.3-2.6,3.3c0,1.9,1,3.3,2.6,3.3c1.9,0,2.6-1.7,2.6-3.3
	C135.3,115.2,134.5,113.5,132.8,113.5z"/>
<path class="st1" d="M138.9,115.6h5.3v2h-5.3V115.6z"/>
<path class="st1" d="M146.3,108.6h2.3v7.5c0,1.7,0.1,3.7,3,3.7s3-2,3-3.7v-7.5h2.3v8.3c0,3.3-2.1,5-5.3,5c-3.2,0-5.3-1.6-5.3-5
	V108.6z"/>
<path class="st1" d="M159.3,112.2h2v1.3l0,0c0.6-1.1,1.7-1.5,2.9-1.5c3,0,4.4,2.2,4.4,5c0,2.5-1.3,4.9-4,4.9c-1.2,0-2.5-0.4-3.1-1.5
	l0,0v4.7h-2.1L159.3,112.2L159.3,112.2z M163.9,113.5c-1.7,0-2.6,1.3-2.6,3.3c0,1.9,1,3.3,2.6,3.3c1.9,0,2.6-1.7,2.6-3.3
	C166.5,115.2,165.6,113.5,163.9,113.5z"/>
<path class="st1" d="M41.5,130.3H52v2h-4.1v11h-2.3v-11h-4.1C41.5,132.3,41.5,130.3,41.5,130.3z"/>
<path class="st1" d="M51.6,133.9h1.9v1.8l0,0c0.2-1,1.5-2.1,2.7-2.1c0.5,0,0.6,0,0.8,0.1v2c-0.3,0-0.6-0.1-0.9-0.1
	c-1.4,0-2.5,1.1-2.5,3.2v4.5h-2.1L51.6,133.9L51.6,133.9z"/>
<path class="st1" d="M65.8,141.2c0,0.5,0.1,0.7,0.5,0.7c0.1,0,0.3,0,0.5,0v1.4c-0.3,0.1-1,0.2-1.3,0.2c-0.8,0-1.4-0.3-1.6-1.1
	c-0.8,0.8-2.1,1.1-3.2,1.1c-1.7,0-3.2-0.9-3.2-2.7c0-2.3,1.9-2.7,3.6-2.9c1.5-0.3,2.8-0.1,2.8-1.3c0-1.1-1.1-1.3-1.9-1.3
	c-1.2,0-2,0.5-2.1,1.5h-2.1c0.1-2.4,2.2-3.1,4.3-3.1c1.8,0,3.7,0.7,3.7,2.7V141.2z M63.7,138.6c-0.6,0.4-1.6,0.4-2.5,0.6
	c-0.9,0.1-1.7,0.5-1.7,1.6c0,0.9,1.2,1.2,1.9,1.2c0.9,0,2.3-0.5,2.3-1.8C63.7,140.2,63.7,138.6,63.7,138.6z"/>
<path class="st1" d="M68,133.9h2v1.4l0,0c0.6-1,1.7-1.7,2.9-1.7c2,0,3.3,1.1,3.3,3.2v6.4h-2.1v-5.9c0-1.5-0.6-2.1-1.8-2.1
	c-1.4,0-2.3,1.1-2.3,2.5v5.5h-2.1L68,133.9L68,133.9z"/>
<path class="st1" d="M80,140.3c0.1,1.2,1,1.6,2.1,1.6c0.8,0,2.1-0.2,2.1-1.2c-0.1-1.1-1.6-1.2-3.1-1.6c-1.5-0.3-3-0.9-3-2.8
	c0-2,2.2-2.7,3.9-2.7c1.9,0,3.7,0.8,3.9,2.9h-2.1c-0.2-1-1-1.2-1.9-1.2c-0.6,0-1.7,0.1-1.7,1c0,1,1.5,1.2,3,1.5c1.5,0.3,3,0.9,3,2.7
	c0,2.2-2.2,3-4.2,3c-2.4,0-4.1-1.1-4.1-3.3H80V140.3z"/>
<path class="st1" d="M95.6,141.2c0,0.5,0.1,0.7,0.5,0.7c0.1,0,0.3,0,0.5,0v1.4c-0.3,0.1-1,0.2-1.3,0.2c-0.8,0-1.4-0.3-1.6-1.1
	c-0.8,0.8-2.1,1.1-3.2,1.1c-1.7,0-3.2-0.9-3.2-2.7c0-2.3,1.9-2.7,3.6-2.9c1.5-0.3,2.8-0.1,2.8-1.3c0-1.1-1.1-1.3-1.9-1.3
	c-1.2,0-2,0.5-2.1,1.5h-2.1c0.1-2.4,2.2-3.1,4.3-3.1c1.8,0,3.7,0.7,3.7,2.7C95.6,136.4,95.6,141.2,95.6,141.2z M93.6,138.6
	c-0.6,0.4-1.6,0.4-2.5,0.6c-0.9,0.1-1.7,0.5-1.7,1.6c0,0.9,1.2,1.2,1.9,1.2c0.9,0,2.3-0.5,2.3-1.8C93.6,140.2,93.6,138.6,93.6,138.6
	z"/>
<path class="st1" d="M104.2,137c-0.2-1.1-1-1.8-2.1-1.8s-2.6,0.6-2.6,3.4c0,1.6,0.7,3.2,2.5,3.2c1.2,0,2-0.8,2.2-2.1h2.1
	c-0.4,2.4-1.9,3.8-4.3,3.8c-2.9,0-4.5-2.1-4.5-4.8c0-2.8,1.5-5,4.6-5c2.2,0,4,1.1,4.2,3.4L104.2,137L104.2,137z"/>
<path class="st1" d="M107,133.9h1.6v-2.8h2.1v2.8h1.9v1.5h-1.9v5c0,0.9,0.1,1.3,1,1.3c0.3,0,0.6,0,0.9-0.1v1.6
	c-0.5,0-0.9,0.1-1.3,0.1c-2.2,0-2.6-0.8-2.6-2.4v-5.5h-1.6L107,133.9L107,133.9z"/>
<path class="st1" d="M114,130.3h2.1v2H114V130.3z M114,133.9h2.1v9.4H114V133.9z"/>
<path class="st1" d="M117.9,138.6c0-2.9,1.7-4.9,4.7-4.9c3,0,4.7,2.1,4.7,4.9c0,2.9-1.7,4.9-4.7,4.9S117.9,141.5,117.9,138.6z
	 M125.3,138.6c0-1.6-0.8-3.3-2.7-3.3c-1.8,0-2.7,1.7-2.7,3.3s0.8,3.3,2.7,3.3S125.3,140.2,125.3,138.6z"/>
<path class="st1" d="M129.1,133.9h2v1.4l0,0c0.6-1,1.7-1.7,2.9-1.7c2,0,3.3,1.1,3.3,3.2v6.4h-2.1v-5.9c0-1.5-0.6-2.1-1.8-2.1
	c-1.4,0-2.3,1.1-2.3,2.5v5.5H129v-9.3H129.1z"/>
<path class="st1" d="M138.7,132.9l0.4-1.2l2,0.8v-2.2h1.2v2.2l2-0.8l0.4,1.2l-2.1,0.7l1.3,1.7l-1,0.7l-1.3-1.8l-1.2,1.8l-1-0.7
	l1.3-1.7L138.7,132.9z"/>
</svg>
