<?xml version="1.0" encoding="utf-8"?>
<!-- Generator: Adobe Illustrator 24.1.2, SVG Export Plug-In . SVG Version: 6.00 Build 0)  -->
<svg version="1.1" id="Layer_1" xmlns="http://www.w3.org/2000/svg" xmlns:xlink="http://www.w3.org/1999/xlink" x="0px" y="0px"
	 viewBox="0 0 757.4 391.9" style="enable-background:new 0 0 757.4 391.9;" xml:space="preserve">
<style type="text/css">
	.st0{fill:url(#SVGID_1_);}
	.st1{fill:url(#SVGID_2_);}
	.st2{fill:url(#SVGID_3_);}
	.st3{fill:url(#SVGID_4_);}
	.st4{fill:url(#SVGID_5_);}
	.st5{fill:url(#SVGID_6_);}
	.st6{fill:url(#SVGID_7_);}
	.st7{fill:url(#SVGID_8_);}
	.st8{fill:url(#SVGID_9_);}
	.st9{fill:url(#SVGID_10_);}
	.st10{fill:url(#SVGID_11_);}
	.st11{fill:url(#SVGID_12_);}
	.st12{fill:url(#SVGID_13_);}
	.st13{fill:url(#SVGID_14_);}
	.st14{fill:url(#SVGID_15_);}
	.st15{fill:url(#SVGID_16_);}
	.st16{fill:url(#SVGID_17_);}
	.st17{fill:url(#SVGID_18_);}
	.st18{fill:url(#SVGID_19_);}
	.st19{fill:url(#SVGID_20_);}
	.st20{fill:url(#SVGID_21_);}
	.st21{fill:url(#SVGID_22_);}
	.st22{fill:url(#SVGID_23_);}
	.st23{fill:url(#SVGID_24_);}
	.st24{fill:url(#SVGID_25_);}
	.st25{fill:url(#SVGID_26_);}
	.st26{fill:url(#SVGID_27_);}
	.st27{fill:url(#SVGID_28_);}
	.st28{fill:url(#SVGID_29_);}
	.st29{fill:url(#SVGID_30_);}
	.st30{fill:url(#SVGID_31_);}
	.st31{fill:url(#SVGID_32_);}
	.st32{fill:url(#SVGID_33_);}
	.st33{fill:url(#SVGID_34_);}
	.st34{fill:url(#SVGID_35_);}
	.st35{fill:url(#SVGID_36_);}
	.st36{fill:url(#SVGID_37_);}
	.st37{fill:url(#SVGID_38_);}
	.st38{fill:url(#SVGID_39_);}
	.st39{fill:url(#SVGID_40_);}
	.st40{fill:url(#SVGID_41_);}
	.st41{fill:url(#SVGID_42_);}
	.st42{fill:url(#SVGID_43_);}
	.st43{fill:url(#SVGID_44_);}
	.st44{fill:url(#SVGID_45_);}
	.st45{fill:url(#SVGID_46_);}
	.st46{fill:url(#SVGID_47_);}
	.st47{fill:url(#SVGID_48_);}
	.st48{fill:url(#SVGID_49_);}
	.st49{fill:url(#SVGID_50_);}
	.st50{fill:url(#SVGID_51_);}
	.st51{fill:url(#SVGID_52_);}
	.st52{fill:url(#SVGID_53_);}
	.st53{fill:url(#SVGID_54_);}
	.st54{fill:url(#SVGID_55_);}
	.st55{fill:url(#SVGID_56_);}
	.st56{fill:url(#SVGID_57_);}
	.st57{fill:url(#SVGID_58_);}
	.st58{fill:url(#SVGID_59_);}
	.st59{fill:url(#SVGID_60_);}
	.st60{fill:url(#SVGID_61_);}
	.st61{fill:url(#SVGID_62_);}
	.st62{fill:url(#SVGID_63_);}
	.st63{fill:url(#SVGID_64_);}
	.st64{fill:url(#SVGID_65_);}
	.st65{fill:url(#SVGID_66_);}
	.st66{fill:url(#SVGID_67_);}
	.st67{fill:url(#SVGID_68_);}
	.st68{fill:url(#SVGID_69_);}
	.st69{fill:url(#SVGID_70_);}
	.st70{fill:url(#SVGID_71_);}
	.st71{fill:url(#SVGID_72_);}
	.st72{fill:url(#SVGID_73_);}
	.st73{fill:url(#SVGID_74_);}
	.st74{fill:url(#SVGID_75_);}
	.st75{fill:url(#SVGID_76_);}
	.st76{fill:#000004;}
	.st77{fill:url(#SVGID_77_);}
	.st78{fill:url(#SVGID_78_);}
	.st79{fill:url(#SVGID_79_);}
	.st80{fill:url(#SVGID_80_);}
	.st81{fill:url(#SVGID_81_);}
	.st82{fill:url(#SVGID_82_);}
	.st83{fill:url(#SVGID_83_);}
	.st84{fill:url(#SVGID_84_);}
	.st85{fill:url(#SVGID_85_);}
	.st86{fill:url(#SVGID_86_);}
</style>
<g id="Octepos_Logo">
	<g id="Octepos">
		
			<linearGradient id="SVGID_1_" gradientUnits="userSpaceOnUse" x1="502.423" y1="-3.0865" x2="502.423" y2="67.8561" gradientTransform="matrix(1 0 0 -1 0 389.0756)">
			<stop  offset="0.25" style="stop-color:#004B88"/>
			<stop  offset="1" style="stop-color:#00AEEF"/>
		</linearGradient>
		<path class="st0" d="M539.4,329.1c-0.6-0.7-1.4-1.2-2.3-1.3c-2-0.1-3.7,1.7-3.9,4.1c-0.1,2.4,1.4,4.5,3.4,4.6
			c1.1,0.1,2.1-0.5,2.9-1.4c-0.1,14.9-1.7,31-16.3,42.8c-19.3,15.7-39.1,4.6-48.4-7.3c-9.4-11.9-13.2-39,7.6-40.8
			c20.8-1.9,14,18.5,14,18.5c11.4-12.7,0.3-23.3-6.6-25.8c-6.9-2.6-26.6-3.1-27.9,21.2c-1.4,24.3,11.7,35.6,22,42.3
			c5.6,3.6,27.3,14.4,47.5-6.9c20.3-21.3,7.9-58.1,7.9-58.1C539.4,323.7,539.4,326.4,539.4,329.1z"/>
		
			<linearGradient id="SVGID_2_" gradientUnits="userSpaceOnUse" x1="604.0388" y1="45.5756" x2="604.0388" y2="319.0756" gradientTransform="matrix(1 0 0 -1 0 389.0756)">
			<stop  offset="0.25" style="stop-color:#004B88"/>
			<stop  offset="1" style="stop-color:#00AEEF"/>
		</linearGradient>
		<path class="st1" d="M723.7,241.5c-2.3-19.1-15.8-31.3-44.3-37.2c-0.3-0.1-0.6-0.1-1-0.2c-44.9-15.3-42.6-42-41.4-48.2
			c3.7-7.7,5.9-17,5.9-28.2c0-42.6-28-57.7-56.2-57.7c-22.9,0-55.2,19.8-55.2,55c0,16.4,4,28.5,10,37.4c0.4,1,3.2,8.4-0.3,14.7
			c-14,21.1-35.8,31.3-46.2,46.7c-4.9,7.2-6.6,15.5-5.9,24.3c-0.2,0-0.5-0.1-0.7-0.1c-2.3-0.1-4.3,1.4-4.4,3.4c-0.1,2,1.7,3.7,4,3.9
			c0.8,0,1.5-0.1,2.1-0.4c2.5,11.5,8.7,23.8,17.3,35.7c17.1,23.7,21.8,52.9,21.8,52.9c0.6-5.5,0-11.3-1.2-17.2
			c0.4,0.3,0.8,0.5,1.2,0.5c1.4,0.1,2.6-1.2,2.7-3c0.1-1.7-1-3.2-2.4-3.3c-1.1-0.1-2,0.7-2.5,1.9c-5.9-22.5-20.7-46.9-23.3-68.1
			c-3.4-28.1,19-34.8,29.3-39.5c10.3-4.7,17-11.3,17-11.3s3.9,3.1,3.9,25.7c0.1,22.6-28.1,18.4-28.1,18.4
			c40.4,14.2,38.2-22.8,37.2-31.2c-1.6-14.1,2.9-16.4,2.9-16.4c3.2,9.4,14.6,26,39.8,30.7c25.2,4.8,40.8,18.4,51.3,39.2
			c10.5,20.8-13.6,33-13.6,33c35.2-1.7,33.6-38.8,24.6-57.4c-4.5-9.2-8.6-15.6-15-21.3c5.4,1.3,9.9,2.1,13.6,2.6
			c3.3,0.9,7.5,1.2,12,1c0.1,0.9,0.4,1.6,1.1,2.1c1.5,1.1,4-0.1,5.7-2.5c0.9-0.1,1.7-0.2,2.6-0.3c1.2-0.1,2.4-0.1,3.5-0.1
			c-0.5,1.8-0.3,3.4,0.7,4.1c1.4,1,3.8-0.2,5.6-2.7c9.5,3.9,15.2,15.6,14.4,28.3c-1.1,16.7-18.8,16.8-27.4,39.6
			c-8.6,22.8,2,34.6,10.5,32.6s-2.1,0.2-5.9-5.9c-3.8-6.1-8-25.3,10.2-39.1C717.9,270,726,260.5,723.7,241.5z M611.2,135.1
			c-4.4,10-15.7,15-25.7,11c-9.8-4-14.4-15.5-10-25.6c4.4-10,15.7-15,25.7-11C610.9,113.5,615.5,124.8,611.2,135.1z"/>
		
			<linearGradient id="SVGID_3_" gradientUnits="userSpaceOnUse" x1="605.2457" y1="2.5329" x2="605.2457" y2="115.2963" gradientTransform="matrix(1 0 0 -1 0 389.0756)">
			<stop  offset="0.25" style="stop-color:#004B88"/>
			<stop  offset="1" style="stop-color:#00AEEF"/>
		</linearGradient>
		<path class="st2" d="M635.6,365.7c0.7,16.6-12.7,19.6-24.4,6.9c-11.7-12.7,2.3-25.6,14.9-40.3c12.5-14.8,7-35.6-2.8-45.7
			c-9.8-10.1-24.2-15.6-35.8-11.4s-17.5,9.9-13,19.3c4.5,9.5,24.1,9.2,24.1,9.2c-0.1-4.2-8.8-10.9-8.8-10.9s1.4-6.5,14,2.1
			c12.6,8.5,12,24,2,36.1s-13.6,26.4-6.4,41.3c5.7,11.7,22.1,18.3,32.5,11.5S634.9,349,635.6,365.7z"/>
		
			<linearGradient id="SVGID_4_" gradientUnits="userSpaceOnUse" x1="433.9102" y1="87.4345" x2="433.9102" y2="162.1834" gradientTransform="matrix(1 0 0 -1 0 389.0756)">
			<stop  offset="0.25" style="stop-color:#004B88"/>
			<stop  offset="1" style="stop-color:#00AEEF"/>
		</linearGradient>
		<path class="st3" d="M435,280.6c0,0-7.3,15.9-19.2,10.8c-11.9-5.1-15.1-18.7-12.4-30.2c2.4-10.2,14.2-22.6,28.9-27.2
			c14.7-4.7,43.8,0.2,45.3,0.3c1.4,0.1-3.7-2.3-17.7-4.1c-6.5-0.9-15.4-2.8-24.6-3.2c-7.8-0.6-16.4,1.5-16.4,1.5
			c-4.9,1.3-9.6,3.4-13.8,6.9c-16.4,13.7-19.3,36.6-9.4,51.3c4.5,6.7,16,19.9,27.9,13C435.4,292.8,437,278.9,435,280.6z"/>
		
			<linearGradient id="SVGID_5_" gradientUnits="userSpaceOnUse" x1="486.4527" y1="11.0776" x2="486.4527" y2="15.1791" gradientTransform="matrix(1 0 0 -1 0 389.0756)">
			<stop  offset="0.25" style="stop-color:#004B88"/>
			<stop  offset="1" style="stop-color:#00AEEF"/>
		</linearGradient>
		<path class="st4" d="M487.1,374.6c-1.6-0.8-3.2-0.9-3.6-0.2c-0.4,0.7,0.7,2,2.3,2.9c1.6,0.8,3.2,0.9,3.6,0.2
			C489.8,376.7,488.8,375.4,487.1,374.6z"/>
		
			<linearGradient id="SVGID_6_" gradientUnits="userSpaceOnUse" x1="495.15" y1="15.3403" x2="495.15" y2="17.7018" gradientTransform="matrix(1 0 0 -1 0 389.0756)">
			<stop  offset="0.25" style="stop-color:#004B88"/>
			<stop  offset="1" style="stop-color:#00AEEF"/>
		</linearGradient>
		<path class="st5" d="M491.7,372.3c0,0.6,1.5,1.3,3.4,1.4s3.5-0.3,3.5-0.9s-1.5-1.3-3.4-1.4C493.3,371.3,491.7,371.7,491.7,372.3z"
			/>
		
			<linearGradient id="SVGID_7_" gradientUnits="userSpaceOnUse" x1="500.4" y1="6.6219" x2="500.4" y2="10.2036" gradientTransform="matrix(1 0 0 -1 0 389.0756)">
			<stop  offset="0.25" style="stop-color:#004B88"/>
			<stop  offset="1" style="stop-color:#00AEEF"/>
		</linearGradient>
		<path class="st6" d="M496.7,379.8c-0.2,0.9,1.3,2,3.4,2.4c2.1,0.5,3.9,0.2,4-0.7c0.2-0.9-1.3-2-3.4-2.4
			C498.7,378.6,496.9,378.9,496.7,379.8z"/>
		
			<linearGradient id="SVGID_8_" gradientUnits="userSpaceOnUse" x1="477.65" y1="20.4028" x2="477.65" y2="24.299" gradientTransform="matrix(1 0 0 -1 0 389.0756)">
			<stop  offset="0.25" style="stop-color:#004B88"/>
			<stop  offset="1" style="stop-color:#00AEEF"/>
		</linearGradient>
		<path class="st7" d="M475.8,365c-0.4,0.5,0,1.7,1.1,2.6c1,0.9,2.2,1.3,2.6,0.8c0.4-0.5,0-1.7-1.1-2.6
			C477.4,364.8,476.3,364.5,475.8,365z"/>
		
			<linearGradient id="SVGID_9_" gradientUnits="userSpaceOnUse" x1="472.45" y1="27.0104" x2="472.45" y2="33.3503" gradientTransform="matrix(1 0 0 -1 0 389.0756)">
			<stop  offset="0.25" style="stop-color:#004B88"/>
			<stop  offset="1" style="stop-color:#00AEEF"/>
		</linearGradient>
		<path class="st8" d="M473.1,362c1-0.2,1.5-1.8,1.1-3.5c-0.3-1.7-1.4-3-2.4-2.8s-1.5,1.8-1.1,3.5C471.1,361,472.2,362.3,473.1,362z
			"/>
		
			<linearGradient id="SVGID_10_" gradientUnits="userSpaceOnUse" x1="469.5" y1="35.5591" x2="469.5" y2="41.6249" gradientTransform="matrix(1 0 0 -1 0 389.0756)">
			<stop  offset="0.25" style="stop-color:#004B88"/>
			<stop  offset="1" style="stop-color:#00AEEF"/>
		</linearGradient>
		<path class="st9" d="M467.3,350.3c-0.1,1.7,0.8,3.1,2,3.2s2.3-1.2,2.4-2.9c0.1-1.7-0.8-3.1-2-3.2
			C468.5,347.4,467.4,348.7,467.3,350.3z"/>
		
			<linearGradient id="SVGID_11_" gradientUnits="userSpaceOnUse" x1="471.4" y1="43.3155" x2="471.4" y2="49.5548" gradientTransform="matrix(1 0 0 -1 0 389.0756)">
			<stop  offset="0.25" style="stop-color:#004B88"/>
			<stop  offset="1" style="stop-color:#00AEEF"/>
		</linearGradient>
		<path class="st10" d="M471.2,345.8c1.2,0.1,2.2-1.3,2.3-3s-0.8-3.2-1.9-3.2c-1.2-0.1-2.2,1.3-2.3,3
			C469.2,344.2,470.1,345.7,471.2,345.8z"/>
		
			<linearGradient id="SVGID_12_" gradientUnits="userSpaceOnUse" x1="478.25" y1="51.0122" x2="478.25" y2="56.0193" gradientTransform="matrix(1 0 0 -1 0 389.0756)">
			<stop  offset="0.25" style="stop-color:#004B88"/>
			<stop  offset="1" style="stop-color:#00AEEF"/>
		</linearGradient>
		<path class="st11" d="M481.3,333.2c-0.3-0.4-1.9,0.3-3.6,1.6c-1.7,1.3-2.8,2.7-2.5,3.2c0.3,0.4,1.9-0.3,3.6-1.6
			C480.5,335,481.6,333.6,481.3,333.2z"/>
		
			<linearGradient id="SVGID_13_" gradientUnits="userSpaceOnUse" x1="487.7" y1="51.9877" x2="487.7" y2="54.7647" gradientTransform="matrix(1 0 0 -1 0 389.0756)">
			<stop  offset="0.25" style="stop-color:#004B88"/>
			<stop  offset="1" style="stop-color:#00AEEF"/>
		</linearGradient>
		<path class="st12" d="M488.1,334.7c-1.1-0.6-2.2-0.6-2.4,0c-0.2,0.5,0.5,1.4,1.6,2c1.1,0.5,2.2,0.6,2.4,0
			C489.9,336.2,489.2,335.3,488.1,334.7z"/>
		
			<linearGradient id="SVGID_14_" gradientUnits="userSpaceOnUse" x1="494.75" y1="46.747" x2="494.75" y2="49.6441" gradientTransform="matrix(1 0 0 -1 0 389.0756)">
			<stop  offset="0.25" style="stop-color:#004B88"/>
			<stop  offset="1" style="stop-color:#00AEEF"/>
		</linearGradient>
		<path class="st13" d="M496.1,341.8c0.4-0.6,0.1-1.5-0.7-2s-1.7-0.4-2,0.2c-0.4,0.6-0.1,1.5,0.7,2
			C494.8,342.5,495.7,342.4,496.1,341.8z"/>
		
			<linearGradient id="SVGID_15_" gradientUnits="userSpaceOnUse" x1="505.8" y1="14.2584" x2="505.8" y2="19.0687" gradientTransform="matrix(1 0 0 -1 0 389.0756)">
			<stop  offset="0.25" style="stop-color:#004B88"/>
			<stop  offset="1" style="stop-color:#00AEEF"/>
		</linearGradient>
		<path class="st14" d="M506.5,374.6c1.5-0.5,2.4-2,2-3.2s-1.9-1.7-3.4-1.2s-2.4,2-2,3.2C503.4,374.6,505,375.2,506.5,374.6z"/>
		
			<linearGradient id="SVGID_16_" gradientUnits="userSpaceOnUse" x1="513.5346" y1="9.0507" x2="513.5346" y2="14.3664" gradientTransform="matrix(1 0 0 -1 0 389.0756)">
			<stop  offset="0.25" style="stop-color:#004B88"/>
			<stop  offset="1" style="stop-color:#00AEEF"/>
		</linearGradient>
		<path class="st15" d="M510.1,378.6c0.4,1.3,2.3,1.8,4.2,1.2c1.9-0.7,3.1-2.3,2.7-3.6c-0.4-1.3-2.3-1.8-4.2-1.2
			C510.9,375.7,509.6,377.3,510.1,378.6z"/>
		
			<linearGradient id="SVGID_17_" gradientUnits="userSpaceOnUse" x1="524.65" y1="15.8217" x2="524.65" y2="24.2633" gradientTransform="matrix(1 0 0 -1 0 389.0756)">
			<stop  offset="0.25" style="stop-color:#004B88"/>
			<stop  offset="1" style="stop-color:#00AEEF"/>
		</linearGradient>
		<path class="st16" d="M523.1,365.5c-2.6,1.3-4,3.9-3.1,5.8c0.9,2,3.6,2.5,6.2,1.3c2.6-1.3,4-3.9,3.1-5.8
			C528.4,364.8,525.7,364.2,523.1,365.5z"/>
		
			<linearGradient id="SVGID_18_" gradientUnits="userSpaceOnUse" x1="514.55" y1="18.0393" x2="514.55" y2="22.7622" gradientTransform="matrix(1 0 0 -1 0 389.0756)">
			<stop  offset="0.25" style="stop-color:#004B88"/>
			<stop  offset="1" style="stop-color:#00AEEF"/>
		</linearGradient>
		<path class="st17" d="M515.4,370.6c1.5-0.7,2.4-2.2,1.9-3.3c-0.5-1.1-2.1-1.4-3.6-0.6c-1.5,0.7-2.4,2.2-1.9,3.3
			C512.3,371.1,513.9,371.4,515.4,370.6z"/>
		
			<linearGradient id="SVGID_19_" gradientUnits="userSpaceOnUse" x1="521.95" y1="25.4094" x2="521.95" y2="31.3639" gradientTransform="matrix(1 0 0 -1 0 389.0756)">
			<stop  offset="0.25" style="stop-color:#004B88"/>
			<stop  offset="1" style="stop-color:#00AEEF"/>
		</linearGradient>
		<path class="st18" d="M520.5,358.7c-1.5,1.2-2,3.1-1.2,4.2c0.8,1.1,2.7,1,4.1-0.2c1.5-1.2,2-3.1,1.2-4.2
			C523.8,357.4,522,357.5,520.5,358.7z"/>
		
			<linearGradient id="SVGID_20_" gradientUnits="userSpaceOnUse" x1="530.4164" y1="27.1377" x2="530.4164" y2="34.5761" gradientTransform="matrix(1 0 0 -1 0 389.0756)">
			<stop  offset="0.25" style="stop-color:#004B88"/>
			<stop  offset="1" style="stop-color:#00AEEF"/>
		</linearGradient>
		<path class="st19" d="M527.9,357.8c-0.3,2,0.5,3.9,1.9,4.2c1.4,0.3,2.8-1.2,3.1-3.2c0.4-2-0.5-3.9-1.9-4.2
			C529.7,354.3,528.3,355.7,527.9,357.8z"/>
		
			<linearGradient id="SVGID_21_" gradientUnits="userSpaceOnUse" x1="534.4144" y1="40.0216" x2="534.4144" y2="47.6573" gradientTransform="matrix(1 0 0 -1 0 389.0756)">
			<stop  offset="0.25" style="stop-color:#004B88"/>
			<stop  offset="1" style="stop-color:#00AEEF"/>
		</linearGradient>
		<path class="st20" d="M533.5,349c0.8,0.2,1.8-1.3,2.3-3.4s0.3-4-0.4-4.2c-0.8-0.2-1.8,1.3-2.3,3.4
			C532.5,346.9,532.7,348.8,533.5,349z"/>
		
			<linearGradient id="SVGID_22_" gradientUnits="userSpaceOnUse" x1="528.1" y1="35.613" x2="528.1" y2="41.7558" gradientTransform="matrix(1 0 0 -1 0 389.0756)">
			<stop  offset="0.25" style="stop-color:#004B88"/>
			<stop  offset="1" style="stop-color:#00AEEF"/>
		</linearGradient>
		<path class="st21" d="M529.2,347.4c-0.9-0.4-2.1,0.7-2.7,2.4c-0.6,1.7-0.4,3.3,0.5,3.6c0.9,0.3,2.1-0.7,2.7-2.4
			C530.3,349.4,530.1,347.7,529.2,347.4z"/>
		
			<linearGradient id="SVGID_23_" gradientUnits="userSpaceOnUse" x1="536.3" y1="66.6216" x2="536.3" y2="73.3913" gradientTransform="matrix(1 0 0 -1 0 389.0756)">
			<stop  offset="0.25" style="stop-color:#004B88"/>
			<stop  offset="1" style="stop-color:#00AEEF"/>
		</linearGradient>
		<path class="st22" d="M536.1,322.5c1.3,0.1,2.4-1.4,2.5-3.2c0.1-1.9-0.8-3.4-2.1-3.5c-1.3-0.1-2.4,1.4-2.5,3.2
			C533.9,320.8,534.8,322.4,536.1,322.5z"/>
		
			<linearGradient id="SVGID_24_" gradientUnits="userSpaceOnUse" x1="534.5" y1="76.2876" x2="534.5" y2="82.7186" gradientTransform="matrix(1 0 0 -1 0 389.0756)">
			<stop  offset="0.25" style="stop-color:#004B88"/>
			<stop  offset="1" style="stop-color:#00AEEF"/>
		</linearGradient>
		<path class="st23" d="M535.3,312.8c0.8-0.2,1.1-1.8,0.7-3.6c-0.5-1.8-1.5-3-2.3-2.8c-0.8,0.2-1.1,1.8-0.7,3.6
			C533.5,311.8,534.5,313,535.3,312.8z"/>
		
			<linearGradient id="SVGID_25_" gradientUnits="userSpaceOnUse" x1="528.95" y1="72.2614" x2="528.95" y2="78.6798" gradientTransform="matrix(1 0 0 -1 0 389.0756)">
			<stop  offset="0.25" style="stop-color:#004B88"/>
			<stop  offset="1" style="stop-color:#00AEEF"/>
		</linearGradient>
		<path class="st24" d="M528.8,316.8c1.1,0.1,2-1.3,2.1-3.1c0.1-1.8-0.7-3.3-1.8-3.3c-1.1-0.1-2,1.3-2.1,3.1
			C526.9,315.3,527.7,316.7,528.8,316.8z"/>
		
			<linearGradient id="SVGID_26_" gradientUnits="userSpaceOnUse" x1="524.4" y1="84.8991" x2="524.4" y2="92.7131" gradientTransform="matrix(1 0 0 -1 0 389.0756)">
			<stop  offset="0.25" style="stop-color:#004B88"/>
			<stop  offset="1" style="stop-color:#00AEEF"/>
		</linearGradient>
		<path class="st25" d="M525.9,304.1c1.2-0.5,1.4-2.6,0.6-4.7s-2.4-3.4-3.6-2.9c-1.2,0.5-1.4,2.6-0.6,4.7
			C523.2,303.3,524.8,304.6,525.9,304.1z"/>
		
			<linearGradient id="SVGID_27_" gradientUnits="userSpaceOnUse" x1="531.2" y1="85.5205" x2="531.2" y2="92.5026" gradientTransform="matrix(1 0 0 -1 0 389.0756)">
			<stop  offset="0.25" style="stop-color:#004B88"/>
			<stop  offset="1" style="stop-color:#00AEEF"/>
		</linearGradient>
		<path class="st26" d="M532.3,303.5c0.6-0.2,0.6-1.9,0-3.9c-0.6-1.9-1.6-3.3-2.2-3.1c-0.6,0.2-0.6,2,0,3.9
			C530.6,302.4,531.6,303.8,532.3,303.5z"/>
		
			<linearGradient id="SVGID_28_" gradientUnits="userSpaceOnUse" x1="527.8348" y1="97.0812" x2="527.8348" y2="101.9185" gradientTransform="matrix(1 0 0 -1 0 389.0756)">
			<stop  offset="0.25" style="stop-color:#004B88"/>
			<stop  offset="1" style="stop-color:#00AEEF"/>
		</linearGradient>
		<path class="st27" d="M527.2,287.2c-0.5,0.1-0.5,1.3-0.2,2.6c0.4,1.3,1,2.3,1.5,2.2c0.4-0.1,0.5-1.3,0.2-2.6
			C528.3,288,527.6,287,527.2,287.2z"/>
		
			<linearGradient id="SVGID_29_" gradientUnits="userSpaceOnUse" x1="519.071" y1="97.66" x2="519.071" y2="107.6302" gradientTransform="matrix(1 0 0 -1 0 389.0756)">
			<stop  offset="0.25" style="stop-color:#004B88"/>
			<stop  offset="1" style="stop-color:#00AEEF"/>
		</linearGradient>
		<path class="st28" d="M520.4,291.3c1.8-0.5,2.7-3.2,1.9-5.9c-0.7-2.7-2.8-4.4-4.6-3.9c-1.8,0.5-2.6,3.2-1.9,5.9
			C516.5,290.1,518.6,291.9,520.4,291.3z"/>
		
			<linearGradient id="SVGID_30_" gradientUnits="userSpaceOnUse" x1="513.75" y1="110.7648" x2="513.75" y2="123.0626" gradientTransform="matrix(1 0 0 -1 0 389.0756)">
			<stop  offset="0.25" style="stop-color:#004B88"/>
			<stop  offset="1" style="stop-color:#00AEEF"/>
		</linearGradient>
		<path class="st29" d="M514.2,278.3c2.1-0.2,3.7-3.1,3.4-6.4c-0.2-3.4-2.2-6-4.3-5.8c-2.1,0.2-3.7,3.1-3.4,6.4
			C510.1,275.9,512,278.5,514.2,278.3z"/>
		
			<linearGradient id="SVGID_31_" gradientUnits="userSpaceOnUse" x1="523.9" y1="107.6283" x2="523.9" y2="115.6354" gradientTransform="matrix(1 0 0 -1 0 389.0756)">
			<stop  offset="0.25" style="stop-color:#004B88"/>
			<stop  offset="1" style="stop-color:#00AEEF"/>
		</linearGradient>
		<path class="st30" d="M522.6,273.5c-0.9,0.3-1,2.4-0.3,4.5c0.7,2.2,2,3.7,2.9,3.4c0.9-0.3,1-2.4,0.3-4.6
			C524.8,274.7,523.5,273.2,522.6,273.5z"/>
		
			<linearGradient id="SVGID_32_" gradientUnits="userSpaceOnUse" x1="520.5" y1="121.1022" x2="520.5" y2="132.0876" gradientTransform="matrix(1 0 0 -1 0 389.0756)">
			<stop  offset="0.25" style="stop-color:#004B88"/>
			<stop  offset="1" style="stop-color:#00AEEF"/>
		</linearGradient>
		<path class="st31" d="M518,262.8c0.4,3,1.8,5.3,3.2,5.1c1.4-0.2,2.2-2.8,1.8-5.9c-0.4-3-1.9-5.3-3.2-5.1
			C518.4,257.2,517.6,259.8,518,262.8z"/>
		
			<linearGradient id="SVGID_33_" gradientUnits="userSpaceOnUse" x1="511.25" y1="126.7039" x2="511.25" y2="138.379" gradientTransform="matrix(1 0 0 -1 0 389.0756)">
			<stop  offset="0.25" style="stop-color:#004B88"/>
			<stop  offset="1" style="stop-color:#00AEEF"/>
		</linearGradient>
		<path class="st32" d="M507.9,255.9c-0.5,3.2,0.5,6.1,2.4,6.4c1.8,0.3,3.8-2,4.3-5.2s-0.5-6.1-2.4-6.4
			C510.3,250.4,508.4,252.7,507.9,255.9z"/>
		
			<linearGradient id="SVGID_34_" gradientUnits="userSpaceOnUse" x1="521.35" y1="136.7711" x2="521.35" y2="144.58" gradientTransform="matrix(1 0 0 -1 0 389.0756)">
			<stop  offset="0.25" style="stop-color:#004B88"/>
			<stop  offset="1" style="stop-color:#00AEEF"/>
		</linearGradient>
		<path class="st33" d="M519.3,248.1c-0.2,2.2,0.5,4,1.6,4.2c1.1,0.1,2.2-1.5,2.5-3.6c0.2-2.1-0.5-4-1.6-4.2
			C520.7,244.4,519.6,246,519.3,248.1z"/>
		
			<linearGradient id="SVGID_35_" gradientUnits="userSpaceOnUse" x1="515.4" y1="144.1744" x2="515.4" y2="155.0809" gradientTransform="matrix(1 0 0 -1 0 389.0756)">
			<stop  offset="0.25" style="stop-color:#004B88"/>
			<stop  offset="1" style="stop-color:#00AEEF"/>
		</linearGradient>
		<path class="st34" d="M516.7,234.1c-2-0.5-4.2,1.5-4.9,4.4c-0.7,3,0.4,5.8,2.3,6.3c2,0.5,4.2-1.5,4.9-4.4
			C519.7,237.4,518.6,234.6,516.7,234.1z"/>
		
			<linearGradient id="SVGID_36_" gradientUnits="userSpaceOnUse" x1="524.772" y1="157.4193" x2="524.772" y2="164.4399" gradientTransform="matrix(1 0 0 -1 0 389.0756)">
			<stop  offset="0.25" style="stop-color:#004B88"/>
			<stop  offset="1" style="stop-color:#00AEEF"/>
		</linearGradient>
		<path class="st35" d="M526.3,224.8c-1.3-0.7-3,0.3-3.9,2.1c-0.8,1.8-0.5,3.8,0.8,4.5c1.3,0.7,3-0.3,3.9-2.1
			C528,227.5,527.6,225.5,526.3,224.8z"/>
		
			<linearGradient id="SVGID_37_" gradientUnits="userSpaceOnUse" x1="526.95" y1="148.994" x2="526.95" y2="156.3149" gradientTransform="matrix(1 0 0 -1 0 389.0756)">
			<stop  offset="0.25" style="stop-color:#004B88"/>
			<stop  offset="1" style="stop-color:#00AEEF"/>
		</linearGradient>
		<path class="st36" d="M528.6,237.2c0.9-2,0.8-3.9-0.1-4.4s-2.4,0.8-3.2,2.7c-0.9,2-0.8,3.9,0.1,4.4S527.8,239.2,528.6,237.2z"/>
		
			<linearGradient id="SVGID_38_" gradientUnits="userSpaceOnUse" x1="534.9105" y1="159.4627" x2="534.9105" y2="165.6005" gradientTransform="matrix(1 0 0 -1 0 389.0756)">
			<stop  offset="0.25" style="stop-color:#004B88"/>
			<stop  offset="1" style="stop-color:#00AEEF"/>
		</linearGradient>
		<path class="st37" d="M532.6,229.4c0.7,0.6,2.3-0.1,3.6-1.7c1.3-1.6,1.7-3.4,1-4c-0.7-0.6-2.3,0.1-3.6,1.7
			C532.4,226.9,531.9,228.7,532.6,229.4z"/>
		
			<linearGradient id="SVGID_39_" gradientUnits="userSpaceOnUse" x1="535.6702" y1="168.2586" x2="535.6702" y2="173.6997" gradientTransform="matrix(1 0 0 -1 0 389.0756)">
			<stop  offset="0.25" style="stop-color:#004B88"/>
			<stop  offset="1" style="stop-color:#00AEEF"/>
		</linearGradient>
		<path class="st38" d="M536.7,219.4c1.4-1.3,2.2-3,1.6-3.7c-0.6-0.7-2.2-0.2-3.7,1.1c-1.4,1.3-2.1,3-1.6,3.7
			C533.6,221.2,535.3,220.7,536.7,219.4z"/>
		
			<linearGradient id="SVGID_40_" gradientUnits="userSpaceOnUse" x1="543.9" y1="166.8527" x2="543.9" y2="173.1761" gradientTransform="matrix(1 0 0 -1 0 389.0756)">
			<stop  offset="0.25" style="stop-color:#004B88"/>
			<stop  offset="1" style="stop-color:#00AEEF"/>
		</linearGradient>
		<path class="st39" d="M545.2,220.6c1.6-1.5,2.3-3.5,1.6-4.3c-0.7-0.8-2.6-0.3-4.2,1.2s-2.3,3.5-1.6,4.3
			C541.8,222.7,543.6,222.1,545.2,220.6z"/>
		
			<linearGradient id="SVGID_41_" gradientUnits="userSpaceOnUse" x1="531.2" y1="117.4993" x2="531.2" y2="123.0922" gradientTransform="matrix(1 0 0 -1 0 389.0756)">
			<stop  offset="0.25" style="stop-color:#004B88"/>
			<stop  offset="1" style="stop-color:#00AEEF"/>
		</linearGradient>
		<path class="st40" d="M526.3,267.4c-0.3,1.3,1.6,3,4.3,3.8c2.7,0.8,5.2,0.3,5.5-1c0.3-1.3-1.6-3.1-4.3-3.8
			C529.1,265.6,526.6,266,526.3,267.4z"/>
		
			<linearGradient id="SVGID_42_" gradientUnits="userSpaceOnUse" x1="532.9122" y1="125.2619" x2="532.9122" y2="131.7498" gradientTransform="matrix(1 0 0 -1 0 389.0756)">
			<stop  offset="0.25" style="stop-color:#004B88"/>
			<stop  offset="1" style="stop-color:#00AEEF"/>
		</linearGradient>
		<path class="st41" d="M533.7,257.6c-2.7-0.8-5.2-0.1-5.6,1.5s1.4,3.6,4,4.3c2.7,0.8,5.2,0.1,5.6-1.5
			C538.2,260.4,536.3,258.4,533.7,257.6z"/>
		
			<linearGradient id="SVGID_43_" gradientUnits="userSpaceOnUse" x1="546.9999" y1="114.0317" x2="546.9999" y2="120.8366" gradientTransform="matrix(1 0 0 -1 0 389.0756)">
			<stop  offset="0.25" style="stop-color:#004B88"/>
			<stop  offset="1" style="stop-color:#00AEEF"/>
		</linearGradient>
		<path class="st42" d="M547.2,268.3c-2.9-0.2-5.3,1.2-5.4,3.1c-0.1,1.9,2.1,3.5,5,3.7s5.3-1.2,5.4-3.1
			C552.3,270.1,550,268.4,547.2,268.3z"/>
		
			<linearGradient id="SVGID_44_" gradientUnits="userSpaceOnUse" x1="549.45" y1="125.8457" x2="549.45" y2="133.2003" gradientTransform="matrix(1 0 0 -1 0 389.0756)">
			<stop  offset="0.25" style="stop-color:#004B88"/>
			<stop  offset="1" style="stop-color:#00AEEF"/>
		</linearGradient>
		<path class="st43" d="M549.1,255.9c-2.7,0.3-4.7,2.2-4.5,4.2c0.2,2,2.5,3.4,5.2,3.1c2.7-0.3,4.7-2.2,4.5-4.2
			C554.2,257,551.8,255.6,549.1,255.9z"/>
		
			<linearGradient id="SVGID_45_" gradientUnits="userSpaceOnUse" x1="563.4" y1="117.5604" x2="563.4" y2="126.1646" gradientTransform="matrix(1 0 0 -1 0 389.0756)">
			<stop  offset="0.25" style="stop-color:#004B88"/>
			<stop  offset="1" style="stop-color:#00AEEF"/>
		</linearGradient>
		<path class="st44" d="M562.5,263.1c-3,0.7-5.1,3.2-4.6,5.4c0.5,2.3,3.4,3.5,6.4,2.7c3-0.7,5.1-3.2,4.6-5.4
			C568.4,263.6,565.5,262.4,562.5,263.1z"/>
		
			<linearGradient id="SVGID_46_" gradientUnits="userSpaceOnUse" x1="579.2" y1="126.343" x2="579.2" y2="140.2619" gradientTransform="matrix(1 0 0 -1 0 389.0756)">
			<stop  offset="0.25" style="stop-color:#004B88"/>
			<stop  offset="1" style="stop-color:#00AEEF"/>
		</linearGradient>
		<path class="st45" d="M579.6,248.8c-2.9-0.2-5.4,2.8-5.6,6.6c-0.2,3.8,1.9,7.1,4.8,7.3c2.9,0.2,5.4-2.8,5.6-6.6
			C584.6,252.3,582.5,249,579.6,248.8z"/>
		
			<linearGradient id="SVGID_47_" gradientUnits="userSpaceOnUse" x1="564.7444" y1="134.572" x2="564.7444" y2="144.213" gradientTransform="matrix(1 0 0 -1 0 389.0756)">
			<stop  offset="0.25" style="stop-color:#004B88"/>
			<stop  offset="1" style="stop-color:#00AEEF"/>
		</linearGradient>
		<path class="st46" d="M568.9,249.9c0.1-2.7-1.6-4.9-3.9-5.1c-2.3-0.1-4.3,1.9-4.4,4.6c-0.2,2.7,1.6,4.9,3.9,5.1
			C566.7,254.6,568.7,252.6,568.9,249.9z"/>
		
			<linearGradient id="SVGID_48_" gradientUnits="userSpaceOnUse" x1="573.7" y1="143.382" x2="573.7" y2="155.0169" gradientTransform="matrix(1 0 0 -1 0 389.0756)">
			<stop  offset="0.25" style="stop-color:#004B88"/>
			<stop  offset="1" style="stop-color:#00AEEF"/>
		</linearGradient>
		<path class="st47" d="M577.4,240.8c0.7-3.2-0.4-6.1-2.5-6.6c-2-0.5-4.3,1.7-4.9,4.9c-0.7,3.2,0.4,6.1,2.5,6.6
			C574.6,246.1,576.8,243.9,577.4,240.8z"/>
		
			<linearGradient id="SVGID_49_" gradientUnits="userSpaceOnUse" x1="574.35" y1="159.5921" x2="574.35" y2="169.8303" gradientTransform="matrix(1 0 0 -1 0 389.0756)">
			<stop  offset="0.25" style="stop-color:#004B88"/>
			<stop  offset="1" style="stop-color:#00AEEF"/>
		</linearGradient>
		<path class="st48" d="M576.1,229.4c1.4-0.5,1.7-3.2,0.8-6c-1-2.8-2.9-4.6-4.3-4s-1.7,3.2-0.8,6
			C572.8,228.1,574.7,229.9,576.1,229.4z"/>
		
			<linearGradient id="SVGID_50_" gradientUnits="userSpaceOnUse" x1="585.2" y1="146.173" x2="585.2" y2="159.1782" gradientTransform="matrix(1 0 0 -1 0 389.0756)">
			<stop  offset="0.25" style="stop-color:#004B88"/>
			<stop  offset="1" style="stop-color:#00AEEF"/>
		</linearGradient>
		<path class="st49" d="M585.7,242.9c1.5-0.1,2.5-3.1,2.2-6.7c-0.3-3.6-1.7-6.4-3.2-6.3s-2.5,3.1-2.2,6.7
			C582.8,240.2,584.2,243,585.7,242.9z"/>
		
			<linearGradient id="SVGID_51_" gradientUnits="userSpaceOnUse" x1="473.6501" y1="136.7909" x2="473.6501" y2="142.6665" gradientTransform="matrix(1 0 0 -1 0 389.0756)">
			<stop  offset="0.25" style="stop-color:#004B88"/>
			<stop  offset="1" style="stop-color:#00AEEF"/>
		</linearGradient>
		<path class="st50" d="M473.5,252.3c2.6,0.2,4.8-1,4.9-2.6c0.1-1.6-2-3.1-4.6-3.2c-2.6-0.2-4.8,1-4.9,2.6S470.9,252.1,473.5,252.3z
			"/>
		
			<linearGradient id="SVGID_52_" gradientUnits="userSpaceOnUse" x1="480.05" y1="143.8949" x2="480.05" y2="149.6845" gradientTransform="matrix(1 0 0 -1 0 389.0756)">
			<stop  offset="0.25" style="stop-color:#004B88"/>
			<stop  offset="1" style="stop-color:#00AEEF"/>
		</linearGradient>
		<path class="st51" d="M475.8,241.1c-0.4,1.5,1.3,3.2,3.6,3.8c2.4,0.7,4.6,0,4.9-1.5c0.4-1.5-1.3-3.2-3.6-3.8
			C478.3,239,476.1,239.6,475.8,241.1z"/>
		
			<linearGradient id="SVGID_53_" gradientUnits="userSpaceOnUse" x1="465.75" y1="145.537" x2="465.75" y2="151.1188" gradientTransform="matrix(1 0 0 -1 0 389.0756)">
			<stop  offset="0.25" style="stop-color:#004B88"/>
			<stop  offset="1" style="stop-color:#00AEEF"/>
		</linearGradient>
		<path class="st52" d="M470.4,241c0.1-1.5-1.9-2.9-4.5-3.1s-4.8,0.9-4.8,2.5c-0.1,1.5,1.9,2.9,4.5,3.1
			C468.2,243.7,470.3,242.6,470.4,241z"/>
		
			<linearGradient id="SVGID_54_" gradientUnits="userSpaceOnUse" x1="459" y1="139.5213" x2="459" y2="144.2636" gradientTransform="matrix(1 0 0 -1 0 389.0756)">
			<stop  offset="0.25" style="stop-color:#004B88"/>
			<stop  offset="1" style="stop-color:#00AEEF"/>
		</linearGradient>
		<path class="st53" d="M463.2,248.2c0.3-1.2-1.4-2.6-3.7-3.2s-4.4-0.1-4.7,1.1s1.4,2.6,3.7,3.2
			C460.8,249.9,462.9,249.4,463.2,248.2z"/>
		
			<linearGradient id="SVGID_55_" gradientUnits="userSpaceOnUse" x1="449.611" y1="147.8146" x2="449.611" y2="153.3343" gradientTransform="matrix(1 0 0 -1 0 389.0756)">
			<stop  offset="0.25" style="stop-color:#004B88"/>
			<stop  offset="1" style="stop-color:#00AEEF"/>
		</linearGradient>
		<path class="st54" d="M450.2,236c-2.7-0.7-5.1-0.1-5.5,1.2c-0.3,1.4,1.6,3,4.3,3.7s5.1,0.1,5.5-1.2S453,236.7,450.2,236z"/>
		
			<linearGradient id="SVGID_56_" gradientUnits="userSpaceOnUse" x1="444.0981" y1="142.3066" x2="444.0981" y2="145.423" gradientTransform="matrix(1 0 0 -1 0 389.0756)">
			<stop  offset="0.25" style="stop-color:#004B88"/>
			<stop  offset="1" style="stop-color:#00AEEF"/>
		</linearGradient>
		<path class="st55" d="M444.2,243.7c-2.4-0.1-4.4,0.4-4.4,1.3c-0.1,0.8,1.8,1.7,4.2,1.8c2.4,0.2,4.4-0.4,4.4-1.3
			C448.4,244.6,446.6,243.8,444.2,243.7z"/>
		
			<linearGradient id="SVGID_57_" gradientUnits="userSpaceOnUse" x1="436.552" y1="147.8154" x2="436.552" y2="151.2897" gradientTransform="matrix(1 0 0 -1 0 389.0756)">
			<stop  offset="0.25" style="stop-color:#004B88"/>
			<stop  offset="1" style="stop-color:#00AEEF"/>
		</linearGradient>
		<path class="st56" d="M440.8,239.1c-0.1-0.9-2-1.5-4.4-1.2c-2.3,0.2-4.1,1.2-4.1,2.1c0.1,0.9,2,1.5,4.4,1.2
			C439.1,241,440.9,240,440.8,239.1z"/>
		
			<linearGradient id="SVGID_58_" gradientUnits="userSpaceOnUse" x1="432.7" y1="141.8377" x2="432.7" y2="144.7337" gradientTransform="matrix(1 0 0 -1 0 389.0756)">
			<stop  offset="0.25" style="stop-color:#004B88"/>
			<stop  offset="1" style="stop-color:#00AEEF"/>
		</linearGradient>
		<path class="st57" d="M432.4,244.6c-1.8,0.4-3.2,1.3-3,2c0.1,0.7,1.7,0.8,3.6,0.4c1.8-0.4,3.2-1.3,3-2
			C435.8,244.3,434.2,244.1,432.4,244.6z"/>
		
			<linearGradient id="SVGID_59_" gradientUnits="userSpaceOnUse" x1="423.05" y1="141.9764" x2="423.05" y2="146.7793" gradientTransform="matrix(1 0 0 -1 0 389.0756)">
			<stop  offset="0.25" style="stop-color:#004B88"/>
			<stop  offset="1" style="stop-color:#00AEEF"/>
		</linearGradient>
		<path class="st58" d="M422.6,243.9c-2,1.2-3.3,2.6-3.1,3.1c0.3,0.4,2-0.2,4-1.5c2-1.2,3.3-2.6,3.1-3.1
			C426.4,242,424.6,242.6,422.6,243.9z"/>
		
			<linearGradient id="SVGID_60_" gradientUnits="userSpaceOnUse" x1="417.25" y1="136.3189" x2="417.25" y2="138.94" gradientTransform="matrix(1 0 0 -1 0 389.0756)">
			<stop  offset="0.25" style="stop-color:#004B88"/>
			<stop  offset="1" style="stop-color:#00AEEF"/>
		</linearGradient>
		<path class="st59" d="M416.9,250.9c-0.9,0.7-1.5,1.4-1.3,1.8c0.2,0.3,1.1,0.1,2-0.6c0.9-0.6,1.5-1.4,1.3-1.8
			C418.8,250,417.9,250.2,416.9,250.9z"/>
		
			<linearGradient id="SVGID_61_" gradientUnits="userSpaceOnUse" x1="411.5" y1="134.7485" x2="411.5" y2="137.3571" gradientTransform="matrix(1 0 0 -1 0 389.0756)">
			<stop  offset="0.25" style="stop-color:#004B88"/>
			<stop  offset="1" style="stop-color:#00AEEF"/>
		</linearGradient>
		<path class="st60" d="M411.1,252.5c-0.8,0.7-1.3,1.4-1.1,1.7c0.2,0.3,1,0,1.9-0.7c0.8-0.7,1.3-1.4,1.1-1.7
			C412.8,251.5,412,251.8,411.1,252.5z"/>
		
			<linearGradient id="SVGID_62_" gradientUnits="userSpaceOnUse" x1="630.6" y1="100.5551" x2="630.6" y2="108.289" gradientTransform="matrix(1 0 0 -1 0 389.0756)">
			<stop  offset="0.25" style="stop-color:#004B88"/>
			<stop  offset="1" style="stop-color:#00AEEF"/>
		</linearGradient>
		<path class="st61" d="M626.5,282.1c-0.9,1.6,0.2,4.1,2.5,5.5c2.3,1.4,4.8,1.2,5.7-0.4s-0.2-4-2.5-5.5
			C629.9,280.3,627.4,280.5,626.5,282.1z"/>
		
			<linearGradient id="SVGID_63_" gradientUnits="userSpaceOnUse" x1="641.1465" y1="94.7663" x2="641.1465" y2="100.2257" gradientTransform="matrix(1 0 0 -1 0 389.0756)">
			<stop  offset="0.25" style="stop-color:#004B88"/>
			<stop  offset="1" style="stop-color:#00AEEF"/>
		</linearGradient>
		<path class="st62" d="M644.3,290.3c-0.5-1.3-2.3-1.8-4-1.1c-1.8,0.7-2.8,2.4-2.3,3.7c0.5,1.3,2.3,1.8,4,1.1
			C643.7,293.3,644.8,291.6,644.3,290.3z"/>
		
			<linearGradient id="SVGID_64_" gradientUnits="userSpaceOnUse" x1="641.9" y1="106.0019" x2="641.9" y2="113.6497" gradientTransform="matrix(1 0 0 -1 0 389.0756)">
			<stop  offset="0.25" style="stop-color:#004B88"/>
			<stop  offset="1" style="stop-color:#00AEEF"/>
		</linearGradient>
		<path class="st63" d="M641.7,283.1c2.3,0.1,4.3-1.4,4.4-3.6c0.1-2.1-1.7-3.9-4-4.1c-2.3-0.1-4.3,1.4-4.4,3.5
			C637.6,281.1,639.4,282.9,641.7,283.1z"/>
		
			<linearGradient id="SVGID_65_" gradientUnits="userSpaceOnUse" x1="652.6" y1="102.5127" x2="652.6" y2="109.7374" gradientTransform="matrix(1 0 0 -1 0 389.0756)">
			<stop  offset="0.25" style="stop-color:#004B88"/>
			<stop  offset="1" style="stop-color:#00AEEF"/>
		</linearGradient>
		<path class="st64" d="M650.6,281.6c-1.1,1.9-1.1,3.9,0,4.7c1.1,0.7,2.9-0.2,4-2c1.1-1.9,1.1-4,0-4.7S651.7,279.8,650.6,281.6z"/>
		
			<linearGradient id="SVGID_66_" gradientUnits="userSpaceOnUse" x1="651.1" y1="116.0125" x2="651.1" y2="122.4812" gradientTransform="matrix(1 0 0 -1 0 389.0756)">
			<stop  offset="0.25" style="stop-color:#004B88"/>
			<stop  offset="1" style="stop-color:#00AEEF"/>
		</linearGradient>
		<path class="st65" d="M649.6,266.7c-0.9,0.5-1,2.3-0.2,4c0.8,1.7,2.2,2.7,3.2,2.2c0.9-0.5,1-2.3,0.2-4
			C652,267.2,650.6,266.2,649.6,266.7z"/>
		
			<linearGradient id="SVGID_67_" gradientUnits="userSpaceOnUse" x1="642.3818" y1="118.3461" x2="642.3818" y2="126.21" gradientTransform="matrix(1 0 0 -1 0 389.0756)">
			<stop  offset="0.25" style="stop-color:#004B88"/>
			<stop  offset="1" style="stop-color:#00AEEF"/>
		</linearGradient>
		<path class="st66" d="M640.3,267.2c0.3,2.2,1.6,3.7,2.7,3.5c1.2-0.2,1.8-2.1,1.5-4.3c-0.3-2.2-1.6-3.8-2.7-3.5
			C640.6,263.1,639.9,265,640.3,267.2z"/>
		
			<linearGradient id="SVGID_68_" gradientUnits="userSpaceOnUse" x1="638.1" y1="130.0869" x2="638.1" y2="136.4807" gradientTransform="matrix(1 0 0 -1 0 389.0756)">
			<stop  offset="0.25" style="stop-color:#004B88"/>
			<stop  offset="1" style="stop-color:#00AEEF"/>
		</linearGradient>
		<path class="st67" d="M636.3,252.7c-0.6,0.4-0.2,2.1,0.8,3.8c1,1.7,2.3,2.8,2.8,2.5c0.6-0.4,0.2-2.1-0.8-3.8
			C638.1,253.4,636.8,252.3,636.3,252.7z"/>
		
			<linearGradient id="SVGID_69_" gradientUnits="userSpaceOnUse" x1="644.55" y1="128.9543" x2="644.55" y2="136.1117" gradientTransform="matrix(1 0 0 -1 0 389.0756)">
			<stop  offset="0.25" style="stop-color:#004B88"/>
			<stop  offset="1" style="stop-color:#00AEEF"/>
		</linearGradient>
		<path class="st68" d="M647.4,260.1c0.4-0.4-0.5-2.2-2.1-4.2c-1.6-1.9-3.2-3.2-3.6-2.8c-0.4,0.4,0.5,2.2,2.1,4.2
			C645.4,259.2,647,260.4,647.4,260.1z"/>
		
			<linearGradient id="SVGID_70_" gradientUnits="userSpaceOnUse" x1="636.95" y1="138.9635" x2="636.95" y2="144.5545" gradientTransform="matrix(1 0 0 -1 0 389.0756)">
			<stop  offset="0.25" style="stop-color:#004B88"/>
			<stop  offset="1" style="stop-color:#00AEEF"/>
		</linearGradient>
		<path class="st69" d="M634.3,244.6c-0.3,0.3,0.7,1.8,2.2,3.3s2.9,2.5,3.1,2.2c0.3-0.3-0.7-1.8-2.2-3.3
			C636,245.3,634.6,244.3,634.3,244.6z"/>
		
			<linearGradient id="SVGID_71_" gradientUnits="userSpaceOnUse" x1="628.75" y1="143.6707" x2="628.75" y2="148.5263" gradientTransform="matrix(1 0 0 -1 0 389.0756)">
			<stop  offset="0.25" style="stop-color:#004B88"/>
			<stop  offset="1" style="stop-color:#00AEEF"/>
		</linearGradient>
		<path class="st70" d="M630.6,245.4c0.2-0.2-0.4-1.5-1.4-2.8s-2-2.2-2.3-2c-0.2,0.2,0.4,1.4,1.4,2.8
			C629.3,244.7,630.4,245.6,630.6,245.4z"/>
		
			<linearGradient id="SVGID_72_" gradientUnits="userSpaceOnUse" x1="682.7" y1="94.5483" x2="682.7" y2="101.5927" gradientTransform="matrix(1 0 0 -1 0 389.0756)">
			<stop  offset="0.25" style="stop-color:#004B88"/>
			<stop  offset="1" style="stop-color:#00AEEF"/>
		</linearGradient>
		<path class="st71" d="M684.2,291.8c0.9-1.9,0.9-3.8,0.1-4.2c-0.8-0.4-2.2,0.8-3.1,2.7c-0.9,1.9-0.9,3.8-0.1,4.2
			C682,294.9,683.4,293.7,684.2,291.8z"/>
		
			<linearGradient id="SVGID_73_" gradientUnits="userSpaceOnUse" x1="689.65" y1="105.0966" x2="689.65" y2="109.2544" gradientTransform="matrix(1 0 0 -1 0 389.0756)">
			<stop  offset="0.25" style="stop-color:#004B88"/>
			<stop  offset="1" style="stop-color:#00AEEF"/>
		</linearGradient>
		<path class="st72" d="M690.6,282.9c1-1,1.3-2.3,0.8-2.8s-1.7-0.1-2.7,0.9s-1.3,2.3-0.8,2.8S689.6,283.9,690.6,282.9z"/>
		
			<linearGradient id="SVGID_74_" gradientUnits="userSpaceOnUse" x1="696.05" y1="111.9017" x2="696.05" y2="115.2863" gradientTransform="matrix(1 0 0 -1 0 389.0756)">
			<stop  offset="0.25" style="stop-color:#004B88"/>
			<stop  offset="1" style="stop-color:#00AEEF"/>
		</linearGradient>
		<path class="st73" d="M696.7,276.2c0.8-0.8,1.3-1.8,0.9-2.3c-0.4-0.4-1.3-0.1-2.2,0.8c-0.8,0.8-1.3,1.9-0.9,2.3
			C694.9,277.4,695.9,277.1,696.7,276.2z"/>
		
			<linearGradient id="SVGID_75_" gradientUnits="userSpaceOnUse" x1="679.7" y1="77.8929" x2="679.7" y2="89.1571" gradientTransform="matrix(1 0 0 -1 0 389.0756)">
			<stop  offset="0.25" style="stop-color:#004B88"/>
			<stop  offset="1" style="stop-color:#00AEEF"/>
		</linearGradient>
		<path class="st74" d="M680.5,299.9c-0.7-0.1-1.7,2.3-2.1,5.4s-0.2,5.7,0.5,5.8c0.7,0.1,1.7-2.3,2.1-5.4
			C681.4,302.7,681.2,300,680.5,299.9z"/>
		
			<linearGradient id="SVGID_76_" gradientUnits="userSpaceOnUse" x1="680.55" y1="68.915" x2="680.55" y2="74.263" gradientTransform="matrix(1 0 0 -1 0 389.0756)">
			<stop  offset="0.25" style="stop-color:#004B88"/>
			<stop  offset="1" style="stop-color:#00AEEF"/>
		</linearGradient>
		<path class="st75" d="M680,314.8c-0.4,0.1-0.4,1.4-0.1,2.8c0.3,1.5,0.9,2.6,1.2,2.5c0.4-0.1,0.4-1.4,0.1-2.8
			S680.4,314.7,680,314.8z"/>
		<path class="st76" d="M593.5,110.3c-6.3,0-11.3,5.3-11.3,11.7c0,6.5,5.1,11.7,11.3,11.7c6.3,0,11.3-5.3,11.3-11.7
			S599.8,110.3,593.5,110.3z M597.3,120.6c-1.9,0-3.4-1.6-3.4-3.5s1.5-3.5,3.4-3.5s3.4,1.6,3.4,3.5
			C600.7,119,599.2,120.6,597.3,120.6z"/>
		
			<linearGradient id="SVGID_77_" gradientUnits="userSpaceOnUse" x1="633.3" y1="337.8515" x2="633.3" y2="356.8895" gradientTransform="matrix(1 0 0 -1 0 389.0756)">
			<stop  offset="0.25" style="stop-color:#004B88"/>
			<stop  offset="1" style="stop-color:#00AEEF"/>
		</linearGradient>
		<path class="st77" d="M633.3,51.2c5.3,0,9.5-4.3,9.5-9.5c0-5.3-4.3-9.5-9.5-9.5c-5.3,0-9.5,4.3-9.5,9.5
			C623.8,47,628.1,51.2,633.3,51.2z M636.3,35.5c1.5,0,2.7,1.2,2.7,2.7s-1.2,2.7-2.7,2.7s-2.7-1.2-2.7-2.7S634.8,35.5,636.3,35.5z"
			/>
		
			<linearGradient id="SVGID_78_" gradientUnits="userSpaceOnUse" x1="637.1" y1="319.4907" x2="637.1" y2="329.6907" gradientTransform="matrix(1 0 0 -1 0 389.0756)">
			<stop  offset="0.25" style="stop-color:#004B88"/>
			<stop  offset="1" style="stop-color:#00AEEF"/>
		</linearGradient>
		<path class="st78" d="M632,64.5c0,2.8,2.3,5.1,5.1,5.1c2.8,0,5.1-2.3,5.1-5.1s-2.3-5.1-5.1-5.1C634.3,59.4,632,61.7,632,64.5z
			 M638.7,61.1c0.8,0,1.5,0.7,1.5,1.5s-0.7,1.5-1.5,1.5c-0.8,0-1.5-0.6-1.5-1.5C637.2,61.8,637.9,61.1,638.7,61.1z"/>
		
			<linearGradient id="SVGID_79_" gradientUnits="userSpaceOnUse" x1="650" y1="332.4114" x2="650" y2="342.6114" gradientTransform="matrix(1 0 0 -1 0 389.0756)">
			<stop  offset="0.25" style="stop-color:#004B88"/>
			<stop  offset="1" style="stop-color:#00AEEF"/>
		</linearGradient>
		<path class="st79" d="M650,56.7c2.8,0,5.1-2.3,5.1-5.1s-2.3-5.1-5.1-5.1c-2.8,0-5.1,2.3-5.1,5.1S647.2,56.7,650,56.7z M651.6,48.2
			c0.8,0,1.5,0.7,1.5,1.5s-0.7,1.5-1.5,1.5c-0.8,0-1.5-0.7-1.5-1.5S650.8,48.2,651.6,48.2z"/>
		
			<linearGradient id="SVGID_80_" gradientUnits="userSpaceOnUse" x1="610.8" y1="378.893" x2="610.8" y2="389.093" gradientTransform="matrix(1 0 0 -1 0 389.0756)">
			<stop  offset="0.25" style="stop-color:#004B88"/>
			<stop  offset="1" style="stop-color:#00AEEF"/>
		</linearGradient>
		<path class="st80" d="M610.8,10.2c2.8,0,5.1-2.3,5.1-5.1c0-2.8-2.3-5.1-5.1-5.1c-2.8,0-5.1,2.3-5.1,5.1
			C605.7,7.9,608,10.2,610.8,10.2z M612.4,1.7c0.8,0,1.5,0.7,1.5,1.5s-0.7,1.5-1.5,1.5c-0.8,0-1.5-0.7-1.5-1.5S611.6,1.7,612.4,1.7z
			"/>
	</g>
	<g id="Letters">
		
			<linearGradient id="SVGID_81_" gradientUnits="userSpaceOnUse" x1="59" y1="318.7756" x2="59" y2="189.1756" gradientTransform="matrix(1 0 0 -1 0 389.0756)">
			<stop  offset="0" style="stop-color:#00AEEF"/>
			<stop  offset="1" style="stop-color:#44C8F5"/>
		</linearGradient>
		<path class="st81" d="M59.1,199.9c-15.8,0-29.3-5-39.9-14.9C6.4,173,0,156.1,0,135c0-21,6.7-37.8,19.4-50
			c10.4-9.9,23.9-14.7,39.7-14.7c15.6,0,29.3,4.9,39.7,14.7c12.8,12.2,19.2,28.9,19.2,50c0,21-6.5,37.9-19.1,50
			C88.4,195,75.1,199.9,59.1,199.9z M42.8,135c0,23.2,5.9,32.9,16.2,32.9c10.1,0,16.4-9.9,16.4-32.9s-6.3-32.9-16.4-32.9
			C48.7,102.1,42.8,111.8,42.8,135z"/>
		
			<linearGradient id="SVGID_82_" gradientUnits="userSpaceOnUse" x1="176.55" y1="318.8755" x2="176.55" y2="189.1756" gradientTransform="matrix(1 0 0 -1 0 389.0756)">
			<stop  offset="0" style="stop-color:#00AEEF"/>
			<stop  offset="1" style="stop-color:#44C8F5"/>
		</linearGradient>
		<path class="st82" d="M179.6,101.6c-10.8,0-16.4,9.9-16.4,34.5c0,22.8,5.2,31.8,16,31.8c8.1,0,12.8-5.4,14.4-20.5l37.4,2.5
			c-3.4,32-22.7,50-51.8,50c-34.5,0-57.3-24.4-57.3-63.5c0-41.5,21.8-66.2,57.3-66.2c30.2,0,49.6,19.1,52,52.5l-38.5,2.2
			C192.5,108.2,186.8,101.6,179.6,101.6z"/>
		
			<linearGradient id="SVGID_83_" gradientUnits="userSpaceOnUse" x1="276.1" y1="316.1755" x2="276.1" y2="191.4756" gradientTransform="matrix(1 0 0 -1 0 389.0756)">
			<stop  offset="0" style="stop-color:#00AEEF"/>
			<stop  offset="1" style="stop-color:#44C8F5"/>
		</linearGradient>
		<path class="st83" d="M296.1,197.6H256v-92.9h-23.7V72.9h87.6v31.8h-23.7L296.1,197.6L296.1,197.6z"/>
		
			<linearGradient id="SVGID_84_" gradientUnits="userSpaceOnUse" x1="371.05" y1="316.2756" x2="371.05" y2="191.4756" gradientTransform="matrix(1 0 0 -1 0 389.0756)">
			<stop  offset="0" style="stop-color:#00AEEF"/>
			<stop  offset="1" style="stop-color:#44C8F5"/>
		</linearGradient>
		<path class="st84" d="M323.7,72.8h94v31.8h-55.4V119h45.5v29.7h-45.5v17.1h56.1v31.8h-94.7L323.7,72.8L323.7,72.8z"/>
		
			<linearGradient id="SVGID_85_" gradientUnits="userSpaceOnUse" x1="475" y1="316.2756" x2="475" y2="191.5756" gradientTransform="matrix(1 0 0 -1 0 389.0756)">
			<stop  offset="0" style="stop-color:#00AEEF"/>
			<stop  offset="1" style="stop-color:#44C8F5"/>
		</linearGradient>
		<path class="st85" d="M462.7,153.3v44.2h-40.4V72.8h53.2c14.6,0,26.1,1.4,34.2,6.5c11.9,7.6,18,19.4,18,33.8
			c0,23.7-18,40.3-45.1,40.3h-19.9V153.3z M462.7,103.7V124h8.3c9.5,0,14-4.1,14-10.2c0-6.5-3.6-10.1-11.9-10.1H462.7z"/>
		
			<linearGradient id="SVGID_86_" gradientUnits="userSpaceOnUse" x1="701.1501" y1="319.2756" x2="701.1501" y2="189.1756" gradientTransform="matrix(1 0 0 -1 0 389.0756)">
			<stop  offset="0" style="stop-color:#00AEEF"/>
			<stop  offset="1" style="stop-color:#44C8F5"/>
		</linearGradient>
		<path class="st86" d="M703.5,199.9c-31.3,0-52.1-14-58.6-40.3l37.4-7c2.7,10.8,9.4,15.5,21.9,15.5c8.3,0,11.7-3.6,11.7-6.7
			c0-3.6-1.4-5.2-5-6.5c-2-0.9-4.5-1.4-7.6-2.2c-22.3-5-52.5-11.3-52.5-40.8c0-24.5,20.9-42.1,53.6-42.1c24.4,0,41.7,11,50.3,33.3
			l-34.2,9.9c-4-9.3-9.2-12.6-18.5-12.6c-7,0-10.6,3.8-10.6,7c0,2.5,1.1,4,4.5,5.2c3.8,1.4,9.2,2.3,16.2,4.1
			c11.9,2.9,23.2,5,32.9,12.8c8.3,6.5,12.4,16,12.4,27.3c0,10.6-4.3,20.7-12.4,28.2C734.7,194.7,720.4,199.9,703.5,199.9z"/>
	</g>
</g>
<g id="Colour_Pallet">
</g>
</svg>
